<?xml version="1.0" encoding="UTF-8"?><svg xmlns="http://www.w3.org/2000/svg" xmlns:xlink="http://www.w3.org/1999/xlink" fill-opacity="1" color-rendering="auto" color-interpolation="auto" text-rendering="auto" stroke="black" stroke-linecap="square" width="982" stroke-miterlimit="10" shape-rendering="auto" stroke-opacity="1" fill="black" stroke-dasharray="none" font-weight="normal" stroke-width="1" height="839" font-family="'Dialog'" font-style="normal" stroke-linejoin="miter" font-size="12px" stroke-dashoffset="0" image-rendering="auto">
  <!--Generated by ySVG 2.5-->
  <defs id="genericDefs"/>
  <g>
    <defs id="defs1">
      <clipPath clipPathUnits="userSpaceOnUse" id="clipPath1">
        <path d="M0 0 L982 0 L982 839 L0 839 L0 0 Z"/>
      </clipPath>
      <clipPath clipPathUnits="userSpaceOnUse" id="clipPath2">
        <path d="M-1021 -447 L-39 -447 L-39 392 L-1021 392 L-1021 -447 Z"/>
      </clipPath>
    </defs>
    <g fill="white" text-rendering="geometricPrecision" shape-rendering="geometricPrecision" transform="translate(1021,447)" stroke="white">
      <rect x="-1021" width="982" height="839" y="-447" clip-path="url(#clipPath2)" stroke="none"/>
    </g>
    <g fill="rgb(156,59,253)" text-rendering="geometricPrecision" shape-rendering="geometricPrecision" transform="matrix(1,0,0,1,1021,447)" stroke="rgb(156,59,253)">
      <rect x="-747.74" y="-431.1634" clip-path="url(#clipPath2)" width="285.56" rx="4" ry="4" height="808.1299" stroke="none"/>
    </g>
    <g text-rendering="geometricPrecision" stroke-miterlimit="1.45" shape-rendering="geometricPrecision" transform="matrix(1,0,0,1,1021,447)" stroke-linecap="butt">
      <rect x="-747.74" y="-431.1634" clip-path="url(#clipPath2)" fill="none" width="285.56" rx="4" ry="4" height="808.1299"/>
      <text x="-678.8907" xml:space="preserve" y="-414.0247" clip-path="url(#clipPath2)" font-family="sans-serif" stroke="none">device-os-secrets-create</text>
    </g>
    <g fill="silver" text-rendering="geometricPrecision" shape-rendering="geometricPrecision" transform="matrix(1,0,0,1,1021,447)" stroke="silver">
      <rect x="-441.44" width="386.96" height="487.0699" y="-110.1034" clip-path="url(#clipPath2)" stroke="none"/>
    </g>
    <g text-rendering="geometricPrecision" stroke-miterlimit="1.45" shape-rendering="geometricPrecision" transform="matrix(1,0,0,1,1021,447)" stroke-linecap="butt">
      <rect fill="none" x="-441.44" width="386.96" height="487.0699" y="-110.1034" clip-path="url(#clipPath2)"/>
      <text x="-435.44" xml:space="preserve" y="-92.9648" clip-path="url(#clipPath2)" font-family="sans-serif" stroke="none">device-secrets-repository/</text>
    </g>
    <g fill="silver" text-rendering="geometricPrecision" shape-rendering="geometricPrecision" transform="matrix(1,0,0,1,1021,447)" stroke="silver">
      <rect x="-433.16" width="367.48" height="201.2434" y="-30.8434" clip-path="url(#clipPath2)" stroke="none"/>
    </g>
    <g text-rendering="geometricPrecision" stroke-miterlimit="1.45" shape-rendering="geometricPrecision" transform="matrix(1,0,0,1,1021,447)" stroke-linecap="butt">
      <rect fill="none" x="-433.16" width="367.48" height="201.2434" y="-30.8434" clip-path="url(#clipPath2)"/>
      <text x="-427.16" xml:space="preserve" y="-13.7048" clip-path="url(#clipPath2)" font-family="sans-serif" stroke="none">./device/my-device-dir/</text>
    </g>
    <g fill="rgb(156,59,253)" text-rendering="geometricPrecision" shape-rendering="geometricPrecision" transform="matrix(1,0,0,1,1021,447)" stroke="rgb(156,59,253)">
      <rect x="-727.04" y="-92.848" clip-path="url(#clipPath2)" width="243.56" rx="4" ry="4" height="360.998" stroke="none"/>
    </g>
    <g text-rendering="geometricPrecision" stroke-miterlimit="1.45" shape-rendering="geometricPrecision" transform="matrix(1,0,0,1,1021,447)" stroke-linecap="butt">
      <rect x="-727.04" y="-92.848" clip-path="url(#clipPath2)" fill="none" width="243.56" rx="4" ry="4" height="360.998"/>
      <text x="-626.4768" xml:space="preserve" y="-75.7093" clip-path="url(#clipPath2)" font-family="sans-serif" stroke="none">gopass</text>
    </g>
    <g fill="rgb(156,59,253)" text-rendering="geometricPrecision" shape-rendering="geometricPrecision" transform="matrix(1,0,0,1,1021,447)" stroke="rgb(156,59,253)">
      <rect x="-710.64" y="91.3666" clip-path="url(#clipPath2)" width="210.76" rx="4" ry="4" height="157.82" stroke="none"/>
    </g>
    <g text-rendering="geometricPrecision" stroke-miterlimit="1.45" shape-rendering="geometricPrecision" transform="matrix(1,0,0,1,1021,447)" stroke-linecap="butt">
      <rect x="-710.64" y="91.3666" clip-path="url(#clipPath2)" fill="none" width="210.76" rx="4" ry="4" height="157.82"/>
      <text x="-624.2913" xml:space="preserve" y="108.5052" clip-path="url(#clipPath2)" font-family="sans-serif" stroke="none">gnupg</text>
    </g>
    <g fill="silver" text-rendering="geometricPrecision" shape-rendering="geometricPrecision" transform="matrix(1,0,0,1,1021,447)" stroke="silver">
      <rect x="-441.44" width="196.96" height="169.36" y="-397.8017" clip-path="url(#clipPath2)" stroke="none"/>
    </g>
    <g text-rendering="geometricPrecision" stroke-miterlimit="1.45" shape-rendering="geometricPrecision" transform="matrix(1,0,0,1,1021,447)" stroke-linecap="butt">
      <rect fill="none" x="-441.44" width="196.96" height="169.36" y="-397.8017" clip-path="url(#clipPath2)"/>
      <text x="-435.44" xml:space="preserve" y="-380.6631" clip-path="url(#clipPath2)" font-family="sans-serif" stroke="none">secure-secret-temp-dir/</text>
    </g>
    <g fill="silver" text-rendering="geometricPrecision" shape-rendering="geometricPrecision" transform="matrix(1,0,0,1,1021,447)" stroke="silver">
      <rect x="-967.96" width="196.96" height="214.92" y="93.94" clip-path="url(#clipPath2)" stroke="none"/>
    </g>
    <g text-rendering="geometricPrecision" stroke-miterlimit="1.45" shape-rendering="geometricPrecision" transform="matrix(1,0,0,1,1021,447)" stroke-linecap="butt">
      <rect fill="none" x="-967.96" width="196.96" height="214.92" y="93.94" clip-path="url(#clipPath2)"/>
      <text x="-961.96" xml:space="preserve" y="111.0787" clip-path="url(#clipPath2)" font-family="sans-serif" stroke="none">/nsf-workspace/.gnupg</text>
      <text x="-961.96" xml:space="preserve" y="125.0474" clip-path="url(#clipPath2)" font-family="sans-serif" stroke="none">(facotory user gpg home /</text>
      <text x="-961.96" xml:space="preserve" y="139.0162" clip-path="url(#clipPath2)" font-family="sans-serif" stroke="none">keyring)</text>
    </g>
    <g fill="rgb(255,204,0)" text-rendering="geometricPrecision" shape-rendering="geometricPrecision" transform="matrix(1,0,0,1,1021,447)" stroke="rgb(255,204,0)">
      <rect x="-954.9" width="170.84" height="67.44" y="152.42" clip-path="url(#clipPath2)" stroke="none"/>
    </g>
    <g text-rendering="geometricPrecision" stroke-miterlimit="1.45" shape-rendering="geometricPrecision" transform="matrix(1,0,0,1,1021,447)" stroke-linecap="butt">
      <rect fill="none" x="-954.9" width="170.84" height="67.44" y="152.42" clip-path="url(#clipPath2)"/>
      <text x="-948.9" xml:space="preserve" y="169.5587" clip-path="url(#clipPath2)" font-family="sans-serif" stroke="none">OtherRecipientsPublicKeys</text>
    </g>
    <g fill="rgb(255,204,0)" text-rendering="geometricPrecision" shape-rendering="geometricPrecision" transform="matrix(1,0,0,1,1021,447)" stroke="rgb(255,204,0)">
      <rect x="-955.4" width="170.84" height="67.44" y="229.98" clip-path="url(#clipPath2)" stroke="none"/>
    </g>
    <g text-rendering="geometricPrecision" stroke-miterlimit="1.45" shape-rendering="geometricPrecision" transform="matrix(1,0,0,1,1021,447)" stroke-linecap="butt">
      <rect fill="none" x="-955.4" width="170.84" height="67.44" y="229.98" clip-path="url(#clipPath2)"/>
      <text x="-949.4" xml:space="preserve" y="247.1187" clip-path="url(#clipPath2)" font-family="sans-serif" stroke="none">FactoryUserGpgKeypair</text>
      <text x="-949.4" xml:space="preserve" y="261.0874" clip-path="url(#clipPath2)" font-family="sans-serif" stroke="none">(Keyring owner)</text>
    </g>
    <g fill="rgb(255,123,0)" text-rendering="geometricPrecision" shape-rendering="geometricPrecision" transform="matrix(1,0,0,1,1021,447)" stroke="rgb(255,123,0)">
      <rect x="-427.8" width="157.76" height="27.44" y="-307.8817" clip-path="url(#clipPath2)" stroke="none"/>
    </g>
    <g text-rendering="geometricPrecision" stroke-miterlimit="1.45" shape-rendering="geometricPrecision" transform="matrix(1,0,0,1,1021,447)" stroke-linecap="butt">
      <rect fill="none" x="-427.8" width="157.76" height="27.44" y="-307.8817" clip-path="url(#clipPath2)"/>
      <text x="-421.8" xml:space="preserve" y="-290.743" clip-path="url(#clipPath2)" font-family="sans-serif" stroke="none">my-device-secret-file.txt</text>
    </g>
    <g fill="rgb(153,204,0)" text-rendering="geometricPrecision" shape-rendering="geometricPrecision" transform="matrix(1,0,0,1,1021,447)" stroke="rgb(153,204,0)">
      <ellipse rx="93.24" ry="38.9" clip-path="url(#clipPath2)" cx="-605.26" cy="-339.1617" stroke="none"/>
    </g>
    <g text-rendering="geometricPrecision" stroke-miterlimit="1.45" shape-rendering="geometricPrecision" transform="matrix(1,0,0,1,1021,447)" stroke-linecap="butt">
      <ellipse rx="93.24" fill="none" ry="38.9" clip-path="url(#clipPath2)" cx="-605.26" cy="-339.1617"/>
      <text x="-688.3547" xml:space="preserve" y="-335.0074" clip-path="url(#clipPath2)" font-family="sans-serif" stroke="none">1 - Generate device secrets</text>
    </g>
    <g fill="rgb(255,123,0)" text-rendering="geometricPrecision" shape-rendering="geometricPrecision" transform="matrix(1,0,0,1,1021,447)" stroke="rgb(255,123,0)">
      <rect x="-944.98" width="18.76" height="27.44" y="182.96" clip-path="url(#clipPath2)" stroke="none"/>
    </g>
    <g text-rendering="geometricPrecision" stroke-miterlimit="1.45" shape-rendering="geometricPrecision" transform="matrix(1,0,0,1,1021,447)" stroke-linecap="butt">
      <rect fill="none" x="-944.98" width="18.76" height="27.44" y="182.96" clip-path="url(#clipPath2)"/>
      <text x="-938.98" xml:space="preserve" y="200.0987" clip-path="url(#clipPath2)" font-family="sans-serif" stroke="none">D</text>
    </g>
    <g fill="rgb(255,123,0)" text-rendering="geometricPrecision" shape-rendering="geometricPrecision" transform="matrix(1,0,0,1,1021,447)" stroke="rgb(255,123,0)">
      <rect x="-912.22" width="18.76" height="27.44" y="182.96" clip-path="url(#clipPath2)" stroke="none"/>
    </g>
    <g text-rendering="geometricPrecision" stroke-miterlimit="1.45" shape-rendering="geometricPrecision" transform="matrix(1,0,0,1,1021,447)" stroke-linecap="butt">
      <rect fill="none" x="-912.22" width="18.76" height="27.44" y="182.96" clip-path="url(#clipPath2)"/>
      <text x="-906.22" xml:space="preserve" y="200.0987" clip-path="url(#clipPath2)" font-family="sans-serif" stroke="none">Y</text>
    </g>
    <g fill="rgb(255,123,0)" text-rendering="geometricPrecision" shape-rendering="geometricPrecision" transform="matrix(1,0,0,1,1021,447)" stroke="rgb(255,123,0)">
      <rect x="-427.8" width="348.76" height="27.44" y="89.8497" clip-path="url(#clipPath2)" stroke="none"/>
    </g>
    <g text-rendering="geometricPrecision" stroke-miterlimit="1.45" shape-rendering="geometricPrecision" transform="matrix(1,0,0,1,1021,447)" stroke-linecap="butt">
      <rect fill="none" x="-427.8" width="348.76" height="27.44" y="89.8497" clip-path="url(#clipPath2)"/>
      <text x="-421.8" xml:space="preserve" y="106.9884" clip-path="url(#clipPath2)" font-family="sans-serif" stroke="none">my-device-secret-file.txt.b64.gpg -&gt; {D, F, Y, Z}</text>
    </g>
    <g fill="silver" text-rendering="geometricPrecision" shape-rendering="geometricPrecision" transform="matrix(1,0,0,1,1021,447)" stroke="silver">
      <rect x="-1005.96" width="234.96" height="296.92" y="-294.5984" clip-path="url(#clipPath2)" stroke="none"/>
    </g>
    <g text-rendering="geometricPrecision" stroke-miterlimit="1.45" shape-rendering="geometricPrecision" transform="matrix(1,0,0,1,1021,447)" stroke-linecap="butt">
      <rect fill="none" x="-1005.96" width="234.96" height="296.92" y="-294.5984" clip-path="url(#clipPath2)"/>
      <text x="-999.96" xml:space="preserve" y="-277.4597" clip-path="url(#clipPath2)" font-family="sans-serif" stroke="none">device-secrets-repository/</text>
    </g>
    <g fill="rgb(153,204,0)" text-rendering="geometricPrecision" shape-rendering="geometricPrecision" transform="matrix(1,0,0,1,1021,447)" stroke="rgb(153,204,0)">
      <ellipse rx="93.24" ry="38.9" clip-path="url(#clipPath2)" cx="-605.26" cy="176.2766" stroke="none"/>
    </g>
    <g text-rendering="geometricPrecision" stroke-miterlimit="1.45" shape-rendering="geometricPrecision" transform="matrix(1,0,0,1,1021,447)" stroke-linecap="butt">
      <ellipse rx="93.24" fill="none" ry="38.9" clip-path="url(#clipPath2)" cx="-605.26" cy="176.2766"/>
      <text x="-683.4036" xml:space="preserve" y="180.4309" clip-path="url(#clipPath2)" font-family="sans-serif" stroke="none">3 - Encrypt device secrets</text>
    </g>
    <g fill="rgb(255,123,0)" text-rendering="geometricPrecision" shape-rendering="geometricPrecision" transform="matrix(1,0,0,1,1021,447)" stroke="rgb(255,123,0)">
      <rect x="-936.46" width="158.72" height="27.44" y="-230.6384" clip-path="url(#clipPath2)" stroke="none"/>
    </g>
    <g text-rendering="geometricPrecision" stroke-miterlimit="1.45" shape-rendering="geometricPrecision" transform="matrix(1,0,0,1,1021,447)" stroke-linecap="butt">
      <rect fill="none" x="-936.46" width="158.72" height="27.44" y="-230.6384" clip-path="url(#clipPath2)"/>
      <text x="-930.46" xml:space="preserve" y="-213.4998" clip-path="url(#clipPath2)" font-family="sans-serif" stroke="none">.public-keys -&gt; {Z}</text>
    </g>
    <g fill="rgb(255,123,0)" text-rendering="geometricPrecision" shape-rendering="geometricPrecision" transform="matrix(1,0,0,1,1021,447)" stroke="rgb(255,123,0)">
      <rect x="-936.7" width="158.96" height="27.44" y="-266.4184" clip-path="url(#clipPath2)" stroke="none"/>
    </g>
    <g text-rendering="geometricPrecision" stroke-miterlimit="1.45" shape-rendering="geometricPrecision" transform="matrix(1,0,0,1,1021,447)" stroke-linecap="butt">
      <rect fill="none" x="-936.7" width="158.96" height="27.44" y="-266.4184" clip-path="url(#clipPath2)"/>
      <text x="-930.7" xml:space="preserve" y="-249.2798" clip-path="url(#clipPath2)" font-family="sans-serif" stroke="none">.gpg-id -&gt; {Z}</text>
    </g>
    <g fill="silver" text-rendering="geometricPrecision" shape-rendering="geometricPrecision" transform="matrix(1,0,0,1,1021,447)" stroke="silver">
      <rect x="-999.46" width="221.48" height="109.92" y="-194.8584" clip-path="url(#clipPath2)" stroke="none"/>
    </g>
    <g text-rendering="geometricPrecision" stroke-miterlimit="1.45" shape-rendering="geometricPrecision" transform="matrix(1,0,0,1,1021,447)" stroke-linecap="butt">
      <rect fill="none" x="-999.46" width="221.48" height="109.92" y="-194.8584" clip-path="url(#clipPath2)"/>
      <text x="-993.46" xml:space="preserve" y="-177.7198" clip-path="url(#clipPath2)" font-family="sans-serif" stroke="none">./device/my-device-dir/</text>
    </g>
    <g fill="silver" text-rendering="geometricPrecision" shape-rendering="geometricPrecision" transform="matrix(1,0,0,1,1021,447)" stroke="silver">
      <rect x="-999.22" width="221.48" height="27.44" y="-76.5984" clip-path="url(#clipPath2)" stroke="none"/>
    </g>
    <g text-rendering="geometricPrecision" stroke-miterlimit="1.45" shape-rendering="geometricPrecision" transform="matrix(1,0,0,1,1021,447)" stroke-linecap="butt">
      <rect fill="none" x="-999.22" width="221.48" height="27.44" y="-76.5984" clip-path="url(#clipPath2)"/>
      <text x="-993.22" xml:space="preserve" y="-59.4598" clip-path="url(#clipPath2)" font-family="sans-serif" stroke="none">./device/other-device-dir/</text>
    </g>
    <g fill="silver" text-rendering="geometricPrecision" shape-rendering="geometricPrecision" transform="matrix(1,0,0,1,1021,447)" stroke="silver">
      <rect x="-999.22" width="221.48" height="27.44" y="-40.8184" clip-path="url(#clipPath2)" stroke="none"/>
    </g>
    <g text-rendering="geometricPrecision" stroke-miterlimit="1.45" shape-rendering="geometricPrecision" transform="matrix(1,0,0,1,1021,447)" stroke-linecap="butt">
      <rect fill="none" x="-999.22" width="221.48" height="27.44" y="-40.8184" clip-path="url(#clipPath2)"/>
      <text x="-993.22" xml:space="preserve" y="-23.6798" clip-path="url(#clipPath2)" font-family="sans-serif" stroke="none">...</text>
    </g>
    <g fill="silver" text-rendering="geometricPrecision" shape-rendering="geometricPrecision" transform="matrix(1,0,0,1,1021,447)" stroke="silver">
      <rect x="-430.7" width="365.02" height="141.44" y="177.21" clip-path="url(#clipPath2)" stroke="none"/>
    </g>
    <g text-rendering="geometricPrecision" stroke-miterlimit="1.45" shape-rendering="geometricPrecision" transform="matrix(1,0,0,1,1021,447)" stroke-linecap="butt">
      <rect fill="none" x="-430.7" width="365.02" height="141.44" y="177.21" clip-path="url(#clipPath2)"/>
      <text x="-424.7" xml:space="preserve" y="194.3487" clip-path="url(#clipPath2)" font-family="sans-serif" stroke="none">./device/other-device-dir/</text>
    </g>
    <g fill="silver" text-rendering="geometricPrecision" shape-rendering="geometricPrecision" transform="matrix(1,0,0,1,1021,447)" stroke="silver">
      <rect x="-430.7" width="221.48" height="27.44" y="325.99" clip-path="url(#clipPath2)" stroke="none"/>
    </g>
    <g text-rendering="geometricPrecision" stroke-miterlimit="1.45" shape-rendering="geometricPrecision" transform="matrix(1,0,0,1,1021,447)" stroke-linecap="butt">
      <rect fill="none" x="-430.7" width="221.48" height="27.44" y="325.99" clip-path="url(#clipPath2)"/>
      <text x="-424.7" xml:space="preserve" y="343.1287" clip-path="url(#clipPath2)" font-family="sans-serif" stroke="none">...</text>
    </g>
    <g fill="rgb(51,153,102)" text-rendering="geometricPrecision" shape-rendering="geometricPrecision" transform="matrix(1,0,0,1,1021,447)" stroke="rgb(51,153,102)">
      <rect x="-937.98" width="4.76" height="9.44" y="200.96" clip-path="url(#clipPath2)" stroke="none"/>
    </g>
    <g text-rendering="geometricPrecision" stroke-miterlimit="1.45" shape-rendering="geometricPrecision" transform="matrix(1,0,0,1,1021,447)" stroke-linecap="butt">
      <rect fill="none" x="-937.98" width="4.76" height="9.44" y="200.96" clip-path="url(#clipPath2)"/>
    </g>
    <g fill="rgb(51,153,102)" text-rendering="geometricPrecision" shape-rendering="geometricPrecision" transform="matrix(1,0,0,1,1021,447)" stroke="rgb(51,153,102)">
      <rect x="-903.22" width="4.76" height="9.44" y="200.96" clip-path="url(#clipPath2)" stroke="none"/>
    </g>
    <g text-rendering="geometricPrecision" stroke-miterlimit="1.45" shape-rendering="geometricPrecision" transform="matrix(1,0,0,1,1021,447)" stroke-linecap="butt">
      <rect fill="none" x="-903.22" width="4.76" height="9.44" y="200.96" clip-path="url(#clipPath2)"/>
    </g>
    <g fill="rgb(153,204,0)" text-rendering="geometricPrecision" shape-rendering="geometricPrecision" transform="matrix(1,0,0,1,1021,447)" stroke="rgb(153,204,0)">
      <ellipse rx="93.24" ry="38.9" clip-path="url(#clipPath2)" cx="-605.26" cy="-252.025" stroke="none"/>
    </g>
    <g text-rendering="geometricPrecision" stroke-miterlimit="1.45" shape-rendering="geometricPrecision" transform="matrix(1,0,0,1,1021,447)" stroke-linecap="butt">
      <ellipse rx="93.24" fill="none" ry="38.9" clip-path="url(#clipPath2)" cx="-605.26" cy="-252.025"/>
      <text x="-668.5002" xml:space="preserve" y="-254.8551" clip-path="url(#clipPath2)" font-family="sans-serif" stroke="none">2 - Determine device</text>
      <text x="-666.4436" xml:space="preserve" y="-240.8863" clip-path="url(#clipPath2)" font-family="sans-serif" stroke="none">secret recipients set</text>
    </g>
    <g fill="rgb(255,123,0)" text-rendering="geometricPrecision" shape-rendering="geometricPrecision" transform="matrix(1,0,0,1,1021,447)" stroke="rgb(255,123,0)">
      <rect x="-942.36" width="158.72" height="27.44" y="-121.8584" clip-path="url(#clipPath2)" stroke="none"/>
    </g>
    <g text-rendering="geometricPrecision" stroke-miterlimit="1.45" shape-rendering="geometricPrecision" transform="matrix(1,0,0,1,1021,447)" stroke-linecap="butt">
      <rect fill="none" x="-942.36" width="158.72" height="27.44" y="-121.8584" clip-path="url(#clipPath2)"/>
      <text x="-936.36" xml:space="preserve" y="-104.7198" clip-path="url(#clipPath2)" font-family="sans-serif" stroke="none">.public-keys -&gt; {Y}</text>
    </g>
    <g fill="rgb(255,123,0)" text-rendering="geometricPrecision" shape-rendering="geometricPrecision" transform="matrix(1,0,0,1,1021,447)" stroke="rgb(255,123,0)">
      <rect x="-942.48" width="158.96" height="27.44" y="-159.8584" clip-path="url(#clipPath2)" stroke="none"/>
    </g>
    <g text-rendering="geometricPrecision" stroke-miterlimit="1.45" shape-rendering="geometricPrecision" transform="matrix(1,0,0,1,1021,447)" stroke-linecap="butt">
      <rect fill="none" x="-942.48" width="158.96" height="27.44" y="-159.8584" clip-path="url(#clipPath2)"/>
      <text x="-936.48" xml:space="preserve" y="-142.7198" clip-path="url(#clipPath2)" font-family="sans-serif" stroke="none">.gpg-id -&gt; {Y}</text>
    </g>
    <g fill="rgb(255,123,0)" text-rendering="geometricPrecision" shape-rendering="geometricPrecision" transform="matrix(1,0,0,1,1021,447)" stroke="rgb(255,123,0)">
      <rect x="-427.56" width="170.84" height="27.44" y="7.2831" clip-path="url(#clipPath2)" stroke="none"/>
    </g>
    <g text-rendering="geometricPrecision" stroke-miterlimit="1.45" shape-rendering="geometricPrecision" transform="matrix(1,0,0,1,1021,447)" stroke-linecap="butt">
      <rect fill="none" x="-427.56" width="170.84" height="27.44" y="7.2831" clip-path="url(#clipPath2)"/>
      <text x="-421.56" xml:space="preserve" y="24.4218" clip-path="url(#clipPath2)" font-family="sans-serif" stroke="none">.public-keys -&gt; {D, F, Y, Z}</text>
    </g>
    <g fill="rgb(255,123,0)" text-rendering="geometricPrecision" shape-rendering="geometricPrecision" transform="matrix(1,0,0,1,1021,447)" stroke="rgb(255,123,0)">
      <rect x="-427.8" width="158.96" height="27.44" y="44.2831" clip-path="url(#clipPath2)" stroke="none"/>
    </g>
    <g text-rendering="geometricPrecision" stroke-miterlimit="1.45" shape-rendering="geometricPrecision" transform="matrix(1,0,0,1,1021,447)" stroke-linecap="butt">
      <rect fill="none" x="-427.8" width="158.96" height="27.44" y="44.2831" clip-path="url(#clipPath2)"/>
      <text x="-421.8" xml:space="preserve" y="61.4218" clip-path="url(#clipPath2)" font-family="sans-serif" stroke="none">.gpg-id -&gt; {D, F, Y, Z}</text>
    </g>
    <g fill="rgb(255,123,0)" text-rendering="geometricPrecision" shape-rendering="geometricPrecision" transform="matrix(1,0,0,1,1021,447)" stroke="rgb(255,123,0)">
      <rect x="-427.8" width="157.76" height="27.44" y="-352.8817" clip-path="url(#clipPath2)" stroke="none"/>
    </g>
    <g text-rendering="geometricPrecision" stroke-miterlimit="1.45" shape-rendering="geometricPrecision" transform="matrix(1,0,0,1,1021,447)" stroke-linecap="butt">
      <rect fill="none" x="-427.8" width="157.76" height="27.44" y="-352.8817" clip-path="url(#clipPath2)"/>
      <text x="-421.8" xml:space="preserve" y="-335.743" clip-path="url(#clipPath2)" font-family="sans-serif" stroke="none">public.gpg-key -&gt; D</text>
    </g>
    <g fill="rgb(255,123,0)" text-rendering="geometricPrecision" shape-rendering="geometricPrecision" transform="matrix(1,0,0,1,1021,447)" stroke="rgb(255,123,0)">
      <rect x="-427.8" width="157.76" height="27.44" y="-273.5269" clip-path="url(#clipPath2)" stroke="none"/>
    </g>
    <g text-rendering="geometricPrecision" stroke-miterlimit="1.45" shape-rendering="geometricPrecision" transform="matrix(1,0,0,1,1021,447)" stroke-linecap="butt">
      <rect fill="none" x="-427.8" width="157.76" height="27.44" y="-273.5269" clip-path="url(#clipPath2)"/>
      <text x="-421.8" xml:space="preserve" y="-256.3882" clip-path="url(#clipPath2)" font-family="sans-serif" stroke="none">...</text>
    </g>
    <g fill="silver" text-rendering="geometricPrecision" shape-rendering="geometricPrecision" transform="matrix(1,0,0,1,1021,447)" stroke="silver">
      <rect x="-436.28" width="231.56" height="84.96" y="-214.1126" clip-path="url(#clipPath2)" stroke="none"/>
    </g>
    <g text-rendering="geometricPrecision" stroke-miterlimit="1.45" shape-rendering="geometricPrecision" transform="matrix(1,0,0,1,1021,447)" stroke-linecap="butt">
      <rect fill="none" x="-436.28" width="231.56" height="84.96" y="-214.1126" clip-path="url(#clipPath2)"/>
      <text x="-430.28" xml:space="preserve" y="-196.9739" clip-path="url(#clipPath2)" font-family="sans-serif" stroke="none">memory-bloc</text>
    </g>
    <g fill="rgb(255,123,0)" text-rendering="geometricPrecision" shape-rendering="geometricPrecision" transform="matrix(1,0,0,1,1021,447)" stroke="rgb(255,123,0)">
      <rect x="-428.8" width="211.76" height="27.44" y="-182.9926" clip-path="url(#clipPath2)" stroke="none"/>
    </g>
    <g text-rendering="geometricPrecision" stroke-miterlimit="1.45" shape-rendering="geometricPrecision" transform="matrix(1,0,0,1,1021,447)" stroke-linecap="butt">
      <rect fill="none" x="-428.8" width="211.76" height="27.44" y="-182.9926" clip-path="url(#clipPath2)"/>
      <text x="-422.8" xml:space="preserve" y="-165.8539" clip-path="url(#clipPath2)" font-family="sans-serif" stroke="none">recipients-set -&gt; {D, F, Y, Z}</text>
    </g>
    <g fill="rgb(153,204,0)" text-rendering="geometricPrecision" shape-rendering="geometricPrecision" transform="matrix(1,0,0,1,1021,447)" stroke="rgb(153,204,0)">
      <ellipse rx="93.24" ry="38.9" clip-path="url(#clipPath2)" cx="-605.26" cy="-139.5617" stroke="none"/>
    </g>
    <g text-rendering="geometricPrecision" stroke-miterlimit="1.45" shape-rendering="geometricPrecision" transform="matrix(1,0,0,1,1021,447)" stroke-linecap="butt">
      <ellipse rx="93.24" fill="none" ry="38.9" clip-path="url(#clipPath2)" cx="-605.26" cy="-139.5617"/>
      <text x="-678.5491" xml:space="preserve" y="-142.3918" clip-path="url(#clipPath2)" font-family="sans-serif" stroke="none">3 - Load missing pubkey</text>
      <text x="-635.0989" xml:space="preserve" y="-128.423" clip-path="url(#clipPath2)" font-family="sans-serif" stroke="none">in keyring</text>
    </g>
    <g fill="rgb(255,123,0)" text-rendering="geometricPrecision" shape-rendering="geometricPrecision" transform="matrix(1,0,0,1,1021,447)" stroke="rgb(255,123,0)">
      <rect x="-427.8" width="348.76" height="27.44" y="127.8497" clip-path="url(#clipPath2)" stroke="none"/>
    </g>
    <g text-rendering="geometricPrecision" stroke-miterlimit="1.45" shape-rendering="geometricPrecision" transform="matrix(1,0,0,1,1021,447)" stroke-linecap="butt">
      <rect fill="none" x="-427.8" width="348.76" height="27.44" y="127.8497" clip-path="url(#clipPath2)"/>
      <text x="-421.8" xml:space="preserve" y="144.9884" clip-path="url(#clipPath2)" font-family="sans-serif" stroke="none">...  -&gt; {D, F, Y, Z}</text>
    </g>
    <g fill="rgb(255,123,0)" text-rendering="geometricPrecision" shape-rendering="geometricPrecision" transform="matrix(1,0,0,1,1021,447)" stroke="rgb(255,123,0)">
      <rect x="-878.86" width="18.76" height="27.44" y="182.96" clip-path="url(#clipPath2)" stroke="none"/>
    </g>
    <g text-rendering="geometricPrecision" stroke-miterlimit="1.45" shape-rendering="geometricPrecision" transform="matrix(1,0,0,1,1021,447)" stroke-linecap="butt">
      <rect fill="none" x="-878.86" width="18.76" height="27.44" y="182.96" clip-path="url(#clipPath2)"/>
      <text x="-872.86" xml:space="preserve" y="200.0987" clip-path="url(#clipPath2)" font-family="sans-serif" stroke="none">Z</text>
    </g>
    <g fill="rgb(51,153,102)" text-rendering="geometricPrecision" shape-rendering="geometricPrecision" transform="matrix(1,0,0,1,1021,447)" stroke="rgb(51,153,102)">
      <rect x="-869.86" width="4.76" height="9.44" y="200.96" clip-path="url(#clipPath2)" stroke="none"/>
    </g>
    <g text-rendering="geometricPrecision" stroke-miterlimit="1.45" shape-rendering="geometricPrecision" transform="matrix(1,0,0,1,1021,447)" stroke-linecap="butt">
      <rect fill="none" x="-869.86" width="4.76" height="9.44" y="200.96" clip-path="url(#clipPath2)"/>
    </g>
    <g fill="rgb(255,123,0)" text-rendering="geometricPrecision" shape-rendering="geometricPrecision" transform="matrix(1,0,0,1,1021,447)" stroke="rgb(255,123,0)">
      <rect x="-813.72" width="18.76" height="27.44" y="266.72" clip-path="url(#clipPath2)" stroke="none"/>
    </g>
    <g text-rendering="geometricPrecision" stroke-miterlimit="1.45" shape-rendering="geometricPrecision" transform="matrix(1,0,0,1,1021,447)" stroke-linecap="butt">
      <rect fill="none" x="-813.72" width="18.76" height="27.44" y="266.72" clip-path="url(#clipPath2)"/>
      <text x="-807.72" xml:space="preserve" y="283.8587" clip-path="url(#clipPath2)" font-family="sans-serif" stroke="none">F</text>
    </g>
    <g fill="rgb(51,153,102)" text-rendering="geometricPrecision" shape-rendering="geometricPrecision" transform="matrix(1,0,0,1,1021,447)" stroke="rgb(51,153,102)">
      <rect x="-804.72" width="4.76" height="9.44" y="284.72" clip-path="url(#clipPath2)" stroke="none"/>
    </g>
    <g text-rendering="geometricPrecision" stroke-miterlimit="1.45" shape-rendering="geometricPrecision" transform="matrix(1,0,0,1,1021,447)" stroke-linecap="butt">
      <rect fill="none" x="-804.72" width="4.76" height="9.44" y="284.72" clip-path="url(#clipPath2)"/>
    </g>
    <g fill="rgb(153,204,0)" text-rendering="geometricPrecision" shape-rendering="geometricPrecision" transform="matrix(1,0,0,1,1021,447)" stroke="rgb(153,204,0)">
      <ellipse rx="93.24" ry="38.9" clip-path="url(#clipPath2)" cx="-605.26" cy="-27.0984" stroke="none"/>
    </g>
    <g text-rendering="geometricPrecision" stroke-miterlimit="1.45" shape-rendering="geometricPrecision" transform="matrix(1,0,0,1,1021,447)" stroke-linecap="butt">
      <ellipse rx="93.24" fill="none" ry="38.9" clip-path="url(#clipPath2)" cx="-605.26" cy="-27.0984"/>
      <text x="-668.7141" xml:space="preserve" y="-36.9129" clip-path="url(#clipPath2)" font-family="sans-serif" stroke="none">4 - Authorize missing</text>
      <text x="-663.426" xml:space="preserve" y="-22.9441" clip-path="url(#clipPath2)" font-family="sans-serif" stroke="none">recipient to current</text>
      <text x="-655.0852" xml:space="preserve" y="-8.9754" clip-path="url(#clipPath2)" font-family="sans-serif" stroke="none">device sub-store</text>
    </g>
    <g fill="rgb(255,204,0)" text-rendering="geometricPrecision" shape-rendering="geometricPrecision" transform="matrix(1,0,0,1,1021,447)" stroke="rgb(255,204,0)">
      <rect x="-263.44" width="158.72" height="27.44" y="-75.2834" clip-path="url(#clipPath2)" stroke="none"/>
    </g>
    <g text-rendering="geometricPrecision" stroke-miterlimit="1.45" shape-rendering="geometricPrecision" transform="matrix(1,0,0,1,1021,447)" stroke-linecap="butt">
      <rect fill="none" x="-263.44" width="158.72" height="27.44" y="-75.2834" clip-path="url(#clipPath2)"/>
      <text x="-257.44" xml:space="preserve" y="-58.1448" clip-path="url(#clipPath2)" font-family="sans-serif" stroke="none">.public-keys -&gt; {Z}</text>
    </g>
    <g fill="rgb(255,204,0)" text-rendering="geometricPrecision" shape-rendering="geometricPrecision" transform="matrix(1,0,0,1,1021,447)" stroke="rgb(255,204,0)">
      <rect x="-433.44" width="158.96" height="27.44" y="-75.2834" clip-path="url(#clipPath2)" stroke="none"/>
    </g>
    <g text-rendering="geometricPrecision" stroke-miterlimit="1.45" shape-rendering="geometricPrecision" transform="matrix(1,0,0,1,1021,447)" stroke-linecap="butt">
      <rect fill="none" x="-433.44" width="158.96" height="27.44" y="-75.2834" clip-path="url(#clipPath2)"/>
      <text x="-427.44" xml:space="preserve" y="-58.1448" clip-path="url(#clipPath2)" font-family="sans-serif" stroke="none">.gpg-id -&gt; {Z}</text>
    </g>
    <g fill="rgb(255,204,0)" text-rendering="geometricPrecision" shape-rendering="geometricPrecision" transform="matrix(1,0,0,1,1021,447)" stroke="rgb(255,204,0)">
      <rect x="-422.57" width="348.76" height="27.44" y="240.71" clip-path="url(#clipPath2)" stroke="none"/>
    </g>
    <g text-rendering="geometricPrecision" stroke-miterlimit="1.45" shape-rendering="geometricPrecision" transform="matrix(1,0,0,1,1021,447)" stroke-linecap="butt">
      <rect fill="none" x="-422.57" width="348.76" height="27.44" y="240.71" clip-path="url(#clipPath2)"/>
      <text x="-416.57" xml:space="preserve" y="257.8487" clip-path="url(#clipPath2)" font-family="sans-serif" stroke="none">my-device-secret-file.txt.b64.gpg -&gt; {X, F, Z}</text>
    </g>
    <g fill="rgb(255,204,0)" text-rendering="geometricPrecision" shape-rendering="geometricPrecision" transform="matrix(1,0,0,1,1021,447)" stroke="rgb(255,204,0)">
      <rect x="-256.33" width="170.84" height="27.44" y="206.4" clip-path="url(#clipPath2)" stroke="none"/>
    </g>
    <g text-rendering="geometricPrecision" stroke-miterlimit="1.45" shape-rendering="geometricPrecision" transform="matrix(1,0,0,1,1021,447)" stroke-linecap="butt">
      <rect fill="none" x="-256.33" width="170.84" height="27.44" y="206.4" clip-path="url(#clipPath2)"/>
      <text x="-250.33" xml:space="preserve" y="223.5387" clip-path="url(#clipPath2)" font-family="sans-serif" stroke="none">.public-keys -&gt; {X, F, Z}</text>
    </g>
    <g fill="rgb(255,204,0)" text-rendering="geometricPrecision" shape-rendering="geometricPrecision" transform="matrix(1,0,0,1,1021,447)" stroke="rgb(255,204,0)">
      <rect x="-422.57" width="158.96" height="27.44" y="206.4" clip-path="url(#clipPath2)" stroke="none"/>
    </g>
    <g text-rendering="geometricPrecision" stroke-miterlimit="1.45" shape-rendering="geometricPrecision" transform="matrix(1,0,0,1,1021,447)" stroke-linecap="butt">
      <rect fill="none" x="-422.57" width="158.96" height="27.44" y="206.4" clip-path="url(#clipPath2)"/>
      <text x="-416.57" xml:space="preserve" y="223.5387" clip-path="url(#clipPath2)" font-family="sans-serif" stroke="none">.gpg-id -&gt; {X, F, Z}</text>
    </g>
    <g fill="rgb(255,204,0)" text-rendering="geometricPrecision" shape-rendering="geometricPrecision" transform="matrix(1,0,0,1,1021,447)" stroke="rgb(255,204,0)">
      <rect x="-422.57" width="348.76" height="27.44" y="275.02" clip-path="url(#clipPath2)" stroke="none"/>
    </g>
    <g text-rendering="geometricPrecision" stroke-miterlimit="1.45" shape-rendering="geometricPrecision" transform="matrix(1,0,0,1,1021,447)" stroke-linecap="butt">
      <rect fill="none" x="-422.57" width="348.76" height="27.44" y="275.02" clip-path="url(#clipPath2)"/>
      <text x="-416.57" xml:space="preserve" y="292.1587" clip-path="url(#clipPath2)" font-family="sans-serif" stroke="none">... -&gt; {X, F, Z}</text>
      <path fill="none" d="M-519.3182 -324.0748 L-436.9246 -309.6107" stroke-width="3" clip-path="url(#clipPath2)"/>
      <path d="M-427.0752 -307.8817 L-440.7686 -316.6311 L-438.1558 -309.8269 L-442.9299 -304.3194 Z" stroke-width="3" clip-path="url(#clipPath2)" stroke="none"/>
      <path fill="none" d="M-356.396 -280.4417 L-579.8062 129.5634" stroke-width="3" clip-path="url(#clipPath2)"/>
      <path d="M-584.5909 138.3444 L-571.9257 128.1633 L-579.2081 128.4657 L-582.9019 122.1824 Z" stroke-width="3" clip-path="url(#clipPath2)" stroke="none"/>
      <path fill="none" d="M-784.06 182.9512 L-708.122 180.1164" stroke-width="3" clip-path="url(#clipPath2)"/>
      <path d="M-698.129 179.7434 L-713.3517 174.0573 L-709.3712 180.1631 L-712.8854 186.5486 Z" stroke-width="3" clip-path="url(#clipPath2)" stroke="none"/>
      <path fill="none" d="M-538.7346 149.0205 L-437.0805 107.372" stroke-width="3" clip-path="url(#clipPath2)"/>
      <path d="M-427.8271 103.5808 L-444.0768 103.4842 L-438.2372 107.8459 L-439.3378 115.0511 Z" stroke-width="3" clip-path="url(#clipPath2)" stroke="none"/>
      <path fill="none" d="M-777.74 -252.486 L-708.498 -252.3009" stroke-width="3" clip-path="url(#clipPath2)"/>
      <path d="M-698.4981 -252.2742 L-713.4813 -258.5643 L-709.748 -252.3043 L-713.5148 -246.0643 Z" stroke-width="3" clip-path="url(#clipPath2)" stroke="none"/>
      <path fill="none" d="M-829.6039 -159.8584 L-680.9462 -220.9311" stroke-width="3" clip-path="url(#clipPath2)"/>
      <path d="M-671.6964 -224.7312 L-687.9462 -224.8122 L-682.1024 -220.4561 L-683.196 -213.2499 Z" stroke-width="3" clip-path="url(#clipPath2)" stroke="none"/>
      <path fill="none" d="M-512.02 -339.1617 L-437.8411 -339.1617" stroke-width="3" clip-path="url(#clipPath2)"/>
      <path d="M-427.8411 -339.1617 L-442.8411 -345.4117 L-439.0911 -339.1617 L-442.8411 -332.9117 Z" stroke-width="3" clip-path="url(#clipPath2)" stroke="none"/>
      <path fill="none" d="M-389.2817 -325.4417 L-523.5078 -279.8148" stroke-width="3" clip-path="url(#clipPath2)"/>
      <path d="M-532.9757 -276.5963 L-516.7623 -275.5065 L-522.3243 -280.2171 L-520.7853 -287.3414 Z" stroke-width="3" clip-path="url(#clipPath2)" stroke="none"/>
      <path fill="none" d="M-541.6534 -310.7187 L-436.9567 -263.9015" stroke-width="3" clip-path="url(#clipPath2)"/>
      <path d="M-427.8278 -259.8193 L-438.9698 -271.6481 L-438.0978 -264.4117 L-444.0724 -260.237 Z" stroke-width="3" clip-path="url(#clipPath2)" stroke="none"/>
      <path fill="none" d="M-528.9654 -229.6634 L-379.3271 -185.8052" stroke-width="3" clip-path="url(#clipPath2)"/>
      <path d="M-369.7308 -182.9926 L-382.3673 -193.2092 L-380.5266 -186.1568 L-385.8831 -181.2138 Z" stroke-width="3" clip-path="url(#clipPath2)" stroke="none"/>
      <path fill="none" d="M-812.4336 -203.1984 L-689.9038 -165.5614" stroke-width="3" clip-path="url(#clipPath2)"/>
      <path d="M-680.3446 -162.6252 L-692.8483 -173.004 L-691.0987 -165.9285 L-696.5186 -161.0551 Z" stroke-width="3" clip-path="url(#clipPath2)" stroke="none"/>
      <path fill="none" d="M-783.64 -117.8139 L-704.6833 -127.4402" stroke-width="3" clip-path="url(#clipPath2)"/>
      <path d="M-694.7568 -128.6504 L-710.403 -133.0391 L-705.9241 -127.2889 L-708.8902 -120.631 Z" stroke-width="3" clip-path="url(#clipPath2)" stroke="none"/>
      <path fill="none" d="M-428.8 -158.1307 L-504.9064 -150.122" stroke-width="3" clip-path="url(#clipPath2)"/>
      <path d="M-514.8515 -149.0755 L-499.2798 -144.4296 L-503.6633 -150.2528 L-500.588 -156.8609 Z" stroke-width="3" clip-path="url(#clipPath2)" stroke="none"/>
      <path fill="none" d="M-635.1514 -102.7149 L-835.8252 144.6541" stroke-width="3" clip-path="url(#clipPath2)"/>
      <path d="M-842.1252 152.42 L-827.8215 144.7086 L-835.0377 143.6833 L-837.5289 136.8336 Z" stroke-width="3" clip-path="url(#clipPath2)" stroke="none"/>
      <path fill="none" d="M-520.8359 159.7653 L-437.6595 143.498" stroke-width="3" clip-path="url(#clipPath2)"/>
      <path d="M-427.8454 141.5786 L-443.7661 138.3239 L-438.8863 143.7379 L-441.3669 150.5915 Z" stroke-width="3" clip-path="url(#clipPath2)" stroke="none"/>
      <path fill="none" d="M-794.96 275.5322 L-672.25 211.3273" stroke-width="3" clip-path="url(#clipPath2)"/>
      <path d="M-663.3896 206.6913 L-679.5778 208.1076 L-673.3576 211.9068 L-673.7827 219.1831 Z" stroke-width="3" clip-path="url(#clipPath2)" stroke="none"/>
      <path fill="none" d="M-799.2103 266.72 L-623.1324 -204.2231" stroke-width="3" clip-path="url(#clipPath2)"/>
      <path d="M-619.6303 -213.5898 L-630.7376 -201.7285 L-623.5701 -203.0522 L-619.0292 -197.3509 Z" stroke-width="3" clip-path="url(#clipPath2)" stroke="none"/>
      <path fill="none" d="M-350.1662 -155.5526 L-536.8422 -61.5507" stroke-width="3" clip-path="url(#clipPath2)"/>
      <path d="M-545.7737 -57.0532 L-529.5654 -58.2172 L-535.7257 -62.1129 L-535.1873 -69.3816 Z" stroke-width="3" clip-path="url(#clipPath2)" stroke="none"/>
      <path fill="none" d="M-771 116.2341 L-653.3372 14.4789" stroke-width="3" clip-path="url(#clipPath2)"/>
      <path d="M-645.7733 7.9376 L-661.2073 13.022 L-654.2826 15.2965 L-653.0308 22.4769 Z" stroke-width="3" clip-path="url(#clipPath2)" stroke="none"/>
      <path fill="none" d="M-519.859 -11.4861 L-427.0266 5.4848" stroke-width="3" clip-path="url(#clipPath2)"/>
      <path d="M-417.1897 7.2831 L-430.8212 -1.5625 L-428.2563 5.26 L-433.0691 10.7338 Z" stroke-width="3" clip-path="url(#clipPath2)" stroke="none"/>
      <path fill="none" d="M-532.2346 -2.9115 L-399.2365 41.139" stroke-width="3" clip-path="url(#clipPath2)"/>
      <path d="M-389.7437 44.2831 L-402.0179 33.6339 L-400.4231 40.746 L-405.948 45.5 Z" stroke-width="3" clip-path="url(#clipPath2)" stroke="none"/>
    </g>
  </g>
</svg>
