<?xml version="1.0" encoding="UTF-8"?><svg xmlns="http://www.w3.org/2000/svg" xmlns:xlink="http://www.w3.org/1999/xlink" fill-opacity="1" color-rendering="auto" color-interpolation="auto" text-rendering="auto" stroke="black" stroke-linecap="square" width="1185" stroke-miterlimit="10" shape-rendering="auto" stroke-opacity="1" fill="black" stroke-dasharray="none" font-weight="normal" stroke-width="1" height="650" font-family="'Dialog'" font-style="normal" stroke-linejoin="miter" font-size="12px" stroke-dashoffset="0" image-rendering="auto">
  <!--Generated by ySVG 2.5-->
  <defs id="genericDefs"/>
  <g>
    <defs id="defs1">
      <clipPath clipPathUnits="userSpaceOnUse" id="clipPath1">
        <path d="M0 0 L1185 0 L1185 650 L0 650 L0 0 Z"/>
      </clipPath>
      <clipPath clipPathUnits="userSpaceOnUse" id="clipPath2">
        <path d="M-879 -381 L306 -381 L306 269 L-879 269 L-879 -381 Z"/>
      </clipPath>
      <clipPath clipPathUnits="userSpaceOnUse" id="clipPath3">
        <path d="M-15.6994 -133.8571 L1170.549 -133.8571 L1170.549 498.765 L-15.6994 498.765 L-15.6994 -133.8571 Z"/>
      </clipPath>
      <clipPath clipPathUnits="userSpaceOnUse" id="clipPath4">
        <path d="M-23.727 -389.2065 L1163.6315 -389.2065 L1163.6315 243.1277 L-23.727 243.1277 L-23.727 -389.2065 Z"/>
      </clipPath>
      <clipPath clipPathUnits="userSpaceOnUse" id="clipPath5">
        <path d="M-121.3306 -221.3286 L1064.9177 -221.3286 L1064.9177 411.0056 L-121.3306 411.0056 L-121.3306 -221.3286 Z"/>
      </clipPath>
    </defs>
    <g fill="white" text-rendering="geometricPrecision" shape-rendering="geometricPrecision" transform="translate(879,381)" stroke="white">
      <rect x="-879" width="1185" height="650" y="-381" clip-path="url(#clipPath2)" stroke="none"/>
    </g>
    <g fill="rgb(156,59,253)" text-rendering="geometricPrecision" shape-rendering="geometricPrecision" transform="matrix(1,0,0,1,879,381)" stroke="rgb(156,59,253)">
      <rect x="-366.36" y="-365.564" clip-path="url(#clipPath2)" width="231.56" rx="4" ry="4" height="619.3799" stroke="none"/>
    </g>
    <g text-rendering="geometricPrecision" stroke-miterlimit="1.45" shape-rendering="geometricPrecision" transform="matrix(1,0,0,1,879,381)" stroke-linecap="butt">
      <rect x="-366.36" y="-365.564" clip-path="url(#clipPath2)" fill="none" width="231.56" rx="4" ry="4" height="619.3799"/>
      <text x="-269.6112" xml:space="preserve" y="-348.4253" clip-path="url(#clipPath2)" font-family="sans-serif" stroke="none">gnupg</text>
    </g>
    <g fill="rgb(153,204,0)" text-rendering="geometricPrecision" shape-rendering="geometricPrecision" transform="matrix(1,0,0,1,879,381)" stroke="rgb(153,204,0)">
      <ellipse rx="93.24" ry="38.9" clip-path="url(#clipPath2)" cx="-729.52" cy="-60.54" stroke="none"/>
    </g>
    <g text-rendering="geometricPrecision" stroke-miterlimit="1.45" shape-rendering="geometricPrecision" transform="matrix(1,0,0,1,879,381)" stroke-linecap="butt">
      <ellipse rx="93.24" fill="none" ry="38.9" clip-path="url(#clipPath2)" cx="-729.52" cy="-60.54"/>
      <text x="-805.3579" xml:space="preserve" y="-70.3545" clip-path="url(#clipPath2)" font-family="sans-serif" stroke="none">0 - Gather **up-to-date**</text>
      <text x="-817.2144" xml:space="preserve" y="-56.3857" clip-path="url(#clipPath2)" font-family="sans-serif" stroke="none">public keys of non-self target</text>
      <text x="-790.8384" xml:space="preserve" y="-42.417" clip-path="url(#clipPath2)" font-family="sans-serif" stroke="none">recipients in keyring</text>
    </g>
    <g fill="silver" text-rendering="geometricPrecision" shape-rendering="geometricPrecision" transform="matrix(1,0,0,1,879,381)" stroke="silver">
      <rect x="-615.96" width="190.96" height="338.08" y="-224.44" clip-path="url(#clipPath2)" stroke="none"/>
    </g>
    <g text-rendering="geometricPrecision" stroke-miterlimit="1.45" shape-rendering="geometricPrecision" transform="matrix(1,0,0,1,879,381)" stroke-linecap="butt">
      <rect fill="none" x="-615.96" width="190.96" height="338.08" y="-224.44" clip-path="url(#clipPath2)"/>
      <text x="-609.96" xml:space="preserve" y="-207.3013" clip-path="url(#clipPath2)" font-family="sans-serif" stroke="none">~/.gnupg</text>
      <text x="-609.96" xml:space="preserve" y="-193.3326" clip-path="url(#clipPath2)" font-family="sans-serif" stroke="none">(gpg home / keyring)</text>
    </g>
    <g fill="rgb(255,204,0)" text-rendering="geometricPrecision" shape-rendering="geometricPrecision" transform="matrix(1,0,0,1,879,381)" stroke="rgb(255,204,0)">
      <rect x="-601.4" width="161.84" height="69.8" y="-53.96" clip-path="url(#clipPath2)" stroke="none"/>
    </g>
    <g text-rendering="geometricPrecision" stroke-miterlimit="1.45" shape-rendering="geometricPrecision" transform="matrix(1,0,0,1,879,381)" stroke-linecap="butt">
      <rect fill="none" x="-601.4" width="161.84" height="69.8" y="-53.96" clip-path="url(#clipPath2)"/>
      <text x="-595.4" xml:space="preserve" y="-36.8213" clip-path="url(#clipPath2)" font-family="sans-serif" stroke="none">RecipientBGpgPubkey</text>
    </g>
    <g fill="silver" text-rendering="geometricPrecision" shape-rendering="geometricPrecision" transform="matrix(1,0,0,1,879,381)" stroke="silver">
      <rect x="-615.96" width="231.56" height="84.96" y="-324.6559" clip-path="url(#clipPath2)" stroke="none"/>
    </g>
    <g text-rendering="geometricPrecision" stroke-miterlimit="1.45" shape-rendering="geometricPrecision" transform="matrix(1,0,0,1,879,381)" stroke-linecap="butt">
      <rect fill="none" x="-615.96" width="231.56" height="84.96" y="-324.6559" clip-path="url(#clipPath2)"/>
      <text x="-609.96" xml:space="preserve" y="-307.5172" clip-path="url(#clipPath2)" font-family="sans-serif" stroke="none">secure-memory-bloc</text>
    </g>
    <g fill="rgb(255,204,0)" text-rendering="geometricPrecision" shape-rendering="geometricPrecision" transform="matrix(1,0,0,1,879,381)" stroke="rgb(255,204,0)">
      <rect x="-603.16" width="161.84" height="118.92" y="-178.4" clip-path="url(#clipPath2)" stroke="none"/>
    </g>
    <g text-rendering="geometricPrecision" stroke-miterlimit="1.45" shape-rendering="geometricPrecision" transform="matrix(1,0,0,1,879,381)" stroke-linecap="butt">
      <rect fill="none" x="-603.16" width="161.84" height="118.92" y="-178.4" clip-path="url(#clipPath2)"/>
      <text x="-597.16" xml:space="preserve" y="-161.2613" clip-path="url(#clipPath2)" font-family="sans-serif" stroke="none">RecipientAGpgKeypair</text>
      <text x="-597.16" xml:space="preserve" y="-147.2926" clip-path="url(#clipPath2)" font-family="sans-serif" stroke="none">(Keyring owner)</text>
    </g>
    <g fill="rgb(255,123,0)" text-rendering="geometricPrecision" shape-rendering="geometricPrecision" transform="matrix(1,0,0,1,879,381)" stroke="rgb(255,123,0)">
      <rect x="-596.12" width="147.76" height="27.44" y="-137.4" clip-path="url(#clipPath2)" stroke="none"/>
    </g>
    <g text-rendering="geometricPrecision" stroke-miterlimit="1.45" shape-rendering="geometricPrecision" transform="matrix(1,0,0,1,879,381)" stroke-linecap="butt">
      <rect fill="none" x="-596.12" width="147.76" height="27.44" y="-137.4" clip-path="url(#clipPath2)"/>
      <text x="-590.12" xml:space="preserve" y="-120.2613" clip-path="url(#clipPath2)" font-family="sans-serif" stroke="none">PublicKey</text>
    </g>
    <g fill="rgb(255,204,0)" text-rendering="geometricPrecision" shape-rendering="geometricPrecision" transform="matrix(1,0,0,1,879,381)" stroke="rgb(255,204,0)">
      <rect x="-596.12" width="147.76" height="27.44" y="-99.44" clip-path="url(#clipPath2)" stroke="none"/>
    </g>
    <g text-rendering="geometricPrecision" stroke-miterlimit="1.45" shape-rendering="geometricPrecision" transform="matrix(1,0,0,1,879,381)" stroke-linecap="butt">
      <rect fill="none" x="-596.12" width="147.76" height="27.44" y="-99.44" clip-path="url(#clipPath2)"/>
      <text x="-590.12" xml:space="preserve" y="-82.3013" clip-path="url(#clipPath2)" font-family="sans-serif" stroke="none">PrivateKey</text>
    </g>
    <g fill="rgb(153,204,0)" text-rendering="geometricPrecision" shape-rendering="geometricPrecision" transform="matrix(1,0,0,1,879,381)" stroke="rgb(153,204,0)">
      <ellipse rx="93.24" ry="38.9" clip-path="url(#clipPath2)" cx="-250.58" cy="-148.86" stroke="none"/>
    </g>
    <g text-rendering="geometricPrecision" stroke-miterlimit="1.45" shape-rendering="geometricPrecision" transform="matrix(1,0,0,1,879,381)" stroke-linecap="butt">
      <ellipse rx="93.24" fill="none" ry="38.9" clip-path="url(#clipPath2)" cx="-250.58" cy="-148.86"/>
      <text x="-317.3153" xml:space="preserve" y="-165.6588" clip-path="url(#clipPath2)" font-family="sans-serif" stroke="none">2 - Encrypt secret gpg</text>
      <text x="-311.412" xml:space="preserve" y="-151.6901" clip-path="url(#clipPath2)" font-family="sans-serif" stroke="none">packet symetric key</text>
      <text x="-333.2294" xml:space="preserve" y="-137.7213" clip-path="url(#clipPath2)" font-family="sans-serif" stroke="none">for all recipients using their</text>
      <text x="-317.6347" xml:space="preserve" y="-123.7526" clip-path="url(#clipPath2)" font-family="sans-serif" stroke="none">respective public keys</text>
    </g>
    <g fill="silver" text-rendering="geometricPrecision" shape-rendering="geometricPrecision" transform="matrix(1,0,0,1,879,381)" stroke="silver">
      <rect x="-86.84" width="377.12" height="426.2" y="-250.62" clip-path="url(#clipPath2)" stroke="none"/>
    </g>
    <g text-rendering="geometricPrecision" stroke-miterlimit="1.45" shape-rendering="geometricPrecision" transform="matrix(1,0,0,1,879,381)" stroke-linecap="butt">
      <rect fill="none" x="-86.84" width="377.12" height="426.2" y="-250.62" clip-path="url(#clipPath2)"/>
      <text x="-80.84" xml:space="preserve" y="-233.4813" clip-path="url(#clipPath2)" font-family="sans-serif" stroke="none">my-secret-file.txt.b64.gpg</text>
    </g>
    <g fill="rgb(255,204,0)" text-rendering="geometricPrecision" shape-rendering="geometricPrecision" transform="matrix(1,0,0,1,879,381)" stroke="rgb(255,204,0)">
      <rect x="-76.16" width="354.48" height="369.36" y="-207.22" clip-path="url(#clipPath2)" stroke="none"/>
    </g>
    <g text-rendering="geometricPrecision" stroke-miterlimit="1.45" shape-rendering="geometricPrecision" transform="matrix(1,0,0,1,879,381)" stroke-linecap="butt">
      <rect fill="none" x="-76.16" width="354.48" height="369.36" y="-207.22" clip-path="url(#clipPath2)"/>
      <text x="-70.16" xml:space="preserve" y="-190.0813" clip-path="url(#clipPath2)" font-family="sans-serif" stroke="none">GpgPacket</text>
    </g>
    <g fill="rgb(255,123,0)" text-rendering="geometricPrecision" shape-rendering="geometricPrecision" transform="matrix(1,0,0,1,879,381)" stroke="rgb(255,123,0)">
      <rect x="-65.92" width="333.36" height="41.52" y="-179.74" clip-path="url(#clipPath2)" stroke="none"/>
    </g>
    <g text-rendering="geometricPrecision" stroke-miterlimit="1.45" shape-rendering="geometricPrecision" transform="matrix(1,0,0,1,879,381)" stroke-linecap="butt">
      <rect fill="none" x="-65.92" width="333.36" height="41.52" y="-179.74" clip-path="url(#clipPath2)"/>
      <text x="-59.92" xml:space="preserve" y="-162.6013" clip-path="url(#clipPath2)" font-family="sans-serif" stroke="none">RecipientAEncryptedSymetricKey</text>
      <text x="-59.92" xml:space="preserve" y="-148.6326" clip-path="url(#clipPath2)" font-family="sans-serif" stroke="none">(ViaRecipientPubKey)</text>
    </g>
    <g fill="rgb(255,123,0)" text-rendering="geometricPrecision" shape-rendering="geometricPrecision" transform="matrix(1,0,0,1,879,381)" stroke="rgb(255,123,0)">
      <rect x="-65.6" width="333.36" height="179.76" y="-29.62" clip-path="url(#clipPath2)" stroke="none"/>
    </g>
    <g text-rendering="geometricPrecision" stroke-miterlimit="1.45" shape-rendering="geometricPrecision" transform="matrix(1,0,0,1,879,381)" stroke-linecap="butt">
      <rect fill="none" x="-65.6" width="333.36" height="179.76" y="-29.62" clip-path="url(#clipPath2)"/>
      <text x="-59.6" xml:space="preserve" y="-12.4813" clip-path="url(#clipPath2)" font-family="sans-serif" stroke="none">EntryptedSecretPayload</text>
      <text x="-59.6" xml:space="preserve" y="1.4874" clip-path="url(#clipPath2)" font-family="sans-serif" stroke="none">(ViaBelowSymetricKey)</text>
    </g>
    <g fill="rgb(255,123,0)" text-rendering="geometricPrecision" shape-rendering="geometricPrecision" transform="matrix(1,0,0,1,879,381)" stroke="rgb(255,123,0)">
      <rect x="-65.92" width="333.36" height="41.52" y="-129.7" clip-path="url(#clipPath2)" stroke="none"/>
    </g>
    <g text-rendering="geometricPrecision" stroke-miterlimit="1.45" shape-rendering="geometricPrecision" transform="matrix(1,0,0,1,879,381)" stroke-linecap="butt">
      <rect fill="none" x="-65.92" width="333.36" height="41.52" y="-129.7" clip-path="url(#clipPath2)"/>
      <text x="-59.92" xml:space="preserve" y="-112.5613" clip-path="url(#clipPath2)" font-family="sans-serif" stroke="none">RecipientBEncryptedSymetricKey</text>
      <text x="-59.92" xml:space="preserve" y="-98.5926" clip-path="url(#clipPath2)" font-family="sans-serif" stroke="none">(ViaRecipientPubKey)</text>
    </g>
    <g fill="rgb(153,204,0)" text-rendering="geometricPrecision" shape-rendering="geometricPrecision" transform="matrix(1,0,0,1,879,381)" stroke="rgb(153,204,0)">
      <ellipse rx="93.24" ry="38.9" clip-path="url(#clipPath2)" cx="-250.58" cy="60.26" stroke="none"/>
    </g>
    <g text-rendering="geometricPrecision" stroke-miterlimit="1.45" shape-rendering="geometricPrecision" transform="matrix(1,0,0,1,879,381)" stroke-linecap="butt">
      <ellipse rx="93.24" fill="none" ry="38.9" clip-path="url(#clipPath2)" cx="-250.58" cy="60.26"/>
      <text x="-329.7489" xml:space="preserve" y="64.4143" clip-path="url(#clipPath2)" font-family="sans-serif" stroke="none">3 - Encrypt secret payload</text>
    </g>
    <g fill="rgb(255,123,0)" text-rendering="geometricPrecision" shape-rendering="geometricPrecision" transform="matrix(1,0,0,1,879,381)" stroke="rgb(255,123,0)">
      <rect x="-608.48" width="211.76" height="27.44" y="-293.5359" clip-path="url(#clipPath2)" stroke="none"/>
    </g>
    <g text-rendering="geometricPrecision" stroke-miterlimit="1.45" shape-rendering="geometricPrecision" transform="matrix(1,0,0,1,879,381)" stroke-linecap="butt">
      <rect fill="none" x="-608.48" width="211.76" height="27.44" y="-293.5359" clip-path="url(#clipPath2)"/>
      <text x="-602.48" xml:space="preserve" y="-276.3972" clip-path="url(#clipPath2)" font-family="sans-serif" stroke="none">GpgPacketSymetricKey</text>
    </g>
    <g fill="silver" text-rendering="geometricPrecision" shape-rendering="geometricPrecision" transform="matrix(1,0,0,1,879,381)" stroke="silver">
      <rect x="-613.56" width="211.76" height="124.92" y="128.8959" clip-path="url(#clipPath2)" stroke="none"/>
    </g>
    <g text-rendering="geometricPrecision" stroke-miterlimit="1.45" shape-rendering="geometricPrecision" transform="matrix(1,0,0,1,879,381)" stroke-linecap="butt">
      <rect fill="none" x="-613.56" width="211.76" height="124.92" y="128.8959" clip-path="url(#clipPath2)"/>
      <text x="-607.56" xml:space="preserve" y="146.0345" clip-path="url(#clipPath2)" font-family="sans-serif" stroke="none">my-secret-file.txt</text>
    </g>
    <g fill="rgb(255,123,0)" text-rendering="geometricPrecision" shape-rendering="geometricPrecision" transform="matrix(1,0,0,1,879,381)" stroke="rgb(255,123,0)">
      <rect x="-603.16" width="190.96" height="84.96" y="153.2959" clip-path="url(#clipPath2)" stroke="none"/>
    </g>
    <g text-rendering="geometricPrecision" stroke-miterlimit="1.45" shape-rendering="geometricPrecision" transform="matrix(1,0,0,1,879,381)" stroke-linecap="butt">
      <rect fill="none" x="-603.16" width="190.96" height="84.96" y="153.2959" clip-path="url(#clipPath2)"/>
      <text x="-597.16" xml:space="preserve" y="170.4345" clip-path="url(#clipPath2)" font-family="sans-serif" stroke="none">SecretPayloadToEncrypt</text>
    </g>
    <g fill="rgb(153,204,0)" text-rendering="geometricPrecision" shape-rendering="geometricPrecision" transform="matrix(1,0,0,1,879,381)" stroke="rgb(153,204,0)">
      <ellipse rx="93.24" ry="38.9" clip-path="url(#clipPath2)" cx="-250.58" cy="-285.7559" stroke="none"/>
    </g>
    <g text-rendering="geometricPrecision" stroke-miterlimit="1.45" shape-rendering="geometricPrecision" transform="matrix(1,0,0,1,879,381)" stroke-linecap="butt">
      <ellipse rx="93.24" fill="none" ry="38.9" clip-path="url(#clipPath2)" cx="-250.58" cy="-285.7559"/>
      <text x="-321.6249" xml:space="preserve" y="-288.5859" clip-path="url(#clipPath2)" font-family="sans-serif" stroke="none">1 - Generate a new gpg</text>
      <text x="-311.412" xml:space="preserve" y="-274.6172" clip-path="url(#clipPath2)" font-family="sans-serif" stroke="none">packet symetric key</text>
    </g>
    <g fill="rgb(255,123,0)" text-rendering="geometricPrecision" shape-rendering="geometricPrecision" transform="matrix(1,0,0,1,879,381)" stroke="rgb(255,123,0)">
      <rect x="-594.36" width="147.76" height="27.44" y="-22.96" clip-path="url(#clipPath2)" stroke="none"/>
    </g>
    <g text-rendering="geometricPrecision" stroke-miterlimit="1.45" shape-rendering="geometricPrecision" transform="matrix(1,0,0,1,879,381)" stroke-linecap="butt">
      <rect fill="none" x="-594.36" width="147.76" height="27.44" y="-22.96" clip-path="url(#clipPath2)"/>
      <text x="-588.36" xml:space="preserve" y="-5.8213" clip-path="url(#clipPath2)" font-family="sans-serif" stroke="none">PublicKey</text>
    </g>
    <g fill="rgb(255,123,0)" text-rendering="geometricPrecision" shape-rendering="geometricPrecision" transform="matrix(1,0,0,1,879,381)" stroke="rgb(255,123,0)">
      <rect x="-65.6" width="333.36" height="41.52" y="-79.66" clip-path="url(#clipPath2)" stroke="none"/>
    </g>
    <g text-rendering="geometricPrecision" stroke-miterlimit="1.45" shape-rendering="geometricPrecision" transform="matrix(1,0,0,1,879,381)" stroke-linecap="butt">
      <rect fill="none" x="-65.6" width="333.36" height="41.52" y="-79.66" clip-path="url(#clipPath2)"/>
      <text x="-59.6" xml:space="preserve" y="-62.5213" clip-path="url(#clipPath2)" font-family="sans-serif" stroke="none">RecipientCEncryptedSymetricKey</text>
      <text x="-59.6" xml:space="preserve" y="-48.5526" clip-path="url(#clipPath2)" font-family="sans-serif" stroke="none">(ViaRecipientPubKey)</text>
    </g>
    <g fill="rgb(255,204,0)" text-rendering="geometricPrecision" shape-rendering="geometricPrecision" transform="matrix(1,0,0,1,879,381)" stroke="rgb(255,204,0)">
      <rect x="-601.4" width="161.84" height="69.8" y="21.36" clip-path="url(#clipPath2)" stroke="none"/>
    </g>
    <g text-rendering="geometricPrecision" stroke-miterlimit="1.45" shape-rendering="geometricPrecision" transform="matrix(1,0,0,1,879,381)" stroke-linecap="butt">
      <rect fill="none" x="-601.4" width="161.84" height="69.8" y="21.36" clip-path="url(#clipPath2)"/>
      <text x="-595.4" xml:space="preserve" y="38.4987" clip-path="url(#clipPath2)" font-family="sans-serif" stroke="none">RecipientCGpgPubkey</text>
    </g>
    <g fill="rgb(255,123,0)" text-rendering="geometricPrecision" shape-rendering="geometricPrecision" transform="matrix(1,0,0,1,879,381)" stroke="rgb(255,123,0)">
      <rect x="-594.36" width="147.76" height="27.44" y="52.36" clip-path="url(#clipPath2)" stroke="none"/>
    </g>
    <g text-rendering="geometricPrecision" stroke-miterlimit="1.45" shape-rendering="geometricPrecision" transform="matrix(1,0,0,1,879,381)" stroke-linecap="butt">
      <rect fill="none" x="-594.36" width="147.76" height="27.44" y="52.36" clip-path="url(#clipPath2)"/>
      <text x="-588.36" xml:space="preserve" y="69.4987" clip-path="url(#clipPath2)" font-family="sans-serif" stroke="none">PublicKey</text>
    </g>
    <g text-rendering="geometricPrecision" shape-rendering="geometricPrecision" transform="matrix(0.9989,0,0,1.0275,15.6829,137.5341)">
      <g clip-path="url(#clipPath3)">
        <svg xml:space="preserve" opacity="1" writing-mode="lr-tb" stop-color="rgb(0, 0, 0)" shape-rendering="auto" glyph-orientation-horizontal="0deg" color-profile="auto" lighting-color="rgb(255, 255, 255)" color="rgb(0, 0, 0)" font-weight="400" alignment-baseline="auto" font-style="normal" version="1.1" color-interpolation-filters="linearrgb" text-anchor="start" stroke-linecap="butt" color-interpolation="srgb" font-variant="normal" word-spacing="normal" fill-opacity="1" text-rendering="auto" clip-path="none" text-decoration="none" letter-spacing="normal" viewBox="0 0 57 65" glyph-orientation-vertical="auto" display="inline" font-size-adjust="none" overflow="hidden" fill="rgb(0, 0, 0)" font-stretch="normal" stroke-dasharray="none" id="svg1.Ebene_1" stroke-miterlimit="4" stop-opacity="1" color-rendering="auto" font-size="12" pointer-events="visiblepainted" mask="none" direction="ltr" baseline-shift="baseline" enable-background="new 0 0 57 65" fill-rule="nonzero" image-rendering="auto" stroke-dashoffset="0" width="57px" marker-end="none" clip="auto" cursor="auto" stroke="none" filter="none" visibility="visible" kerning="auto" stroke-width="1" font-family="&quot;Arial&quot;,&quot;Helvetica&quot;,sans-serif" flood-opacity="1" clip-rule="nonzero" src="none" height="65px" unicode-bidi="normal" stroke-linejoin="miter" stroke-opacity="1" flood-color="rgb(0, 0, 0)" dominant-baseline="auto" marker-start="none" x="0px" marker-mid="none" y="0px">
<g>
	<polygon fill="#353535" points="44.675,45.684 13.412,50.074    12.502,27.118 43.718,27.745  " stroke="#353535" stroke-linecap="round" stroke-linejoin="round"/>
	
		<radialGradient gradientTransform="matrix(1 0 0 1 0.3203 -3091.7656)" gradientUnits="userSpaceOnUse" r="31.054" cx="27.2832" id="svg1.SVGID_1_" cy="3145.5264" fx="21.2252" fy="3142.2256">
		<stop offset="0" style="stop-color:#B38E5D"/>
		<stop offset="1" style="stop-color:#805126"/>
	</radialGradient>
	<path fill="url(#svg1.SVGID_1_)" d="M49.529,51.225c-4.396-4.396-10.951-5.884-12.063-6.109   V37.8H19.278c0,0,0.038,6.903,0,6.868c0,0-6.874,0.997-12.308,6.432C1.378,56.691,0.5,62.77,0.5,62.77   c0,1.938,1.575,3.492,3.523,3.492h48.51c1.947,0,3.521-1.558,3.521-3.492C56.055,62.768,54.211,55.906,49.529,51.225z" stroke-miterlimit="10" stroke="#5B453B"/>
	
		<radialGradient gradientTransform="matrix(1 0 0 1 0.3203 -3091.7656)" gradientUnits="userSpaceOnUse" r="23.425" cx="27.5835" id="svg1.face_x5F_white_1_" cy="3117.4922" fx="23.0139" fy="3115.0024">
		<stop offset="0" style="stop-color:#B38E5D"/>
		<stop offset="1" style="stop-color:#805126"/>
	</radialGradient>
	<path fill="url(#svg1.face_x5F_white_1_)" id="svg1.face_x5F_white_2_" d="M43.676,23.357   c0.086,10.2-6.738,18.52-15.25,18.586c-8.5,0.068-15.464-8.146-15.55-18.344C12.794,13.4,19.618,5.079,28.123,5.012   C36.627,4.945,43.59,13.158,43.676,23.357z" stroke-miterlimit="10" stroke="#5B453B"/>
	
		<linearGradient gradientTransform="matrix(0.275 0 0 -0.2733 -1752.8849 -3351.7349)" x1="6466.8389" x2="6490.4683" gradientUnits="userSpaceOnUse" y1="-12294.1094" y2="-12387.5586" id="svg1.face_highlight_1_">
		<stop offset="0" style="stop-color:#FFFFFF;stop-opacity:0.42"/>
		<stop offset="1" style="stop-color:#FFFFFF;stop-opacity:0.12"/>
	</linearGradient>
	<path fill="url(#svg1.face_highlight_1_)" id="svg1.face_highlight_2_" d="M27.958,6.333c-6.035,0.047-10.747,4.493-12.787,10.386   c-0.664,1.919-0.294,4.043,0.98,5.629c2.73,3.398,5.729,6.283,9.461,8.088c3.137,1.518,7.535,2.385,11.893,1.247   c2.274-0.592,3.988-2.459,4.375-4.766c0.187-1.094,0.293-2.289,0.283-3.553C42.083,13.952,36.271,6.268,27.958,6.333z"/>
	<path fill="#5C5C5C" d="M17.597,43.835   c-0.413-3.019-0.613-5.013-0.789-7.864c-0.574-9.349,2.886-17.721,2.886-17.721l0.882-2.078l0.94,2.419l1.872-4.956l-0.049,4.553   l1.311-0.749l0.701-1.653L25.715,18l1.055-0.988l2.13-0.729L29.84,17l0.479-2.375l0.834,2.554l1.125-1.024l1.68-0.214l1.07,1.372   l-0.243-4.246l1.883,3.967L37.611,17c0,0,6.029,9.948,3.75,28.426c2.154,0.76,4.479,2.688,6.881,4.648   c0.001-0.002,0.011-0.012,0.011-0.012L44.111,19.38C43.079,12.873,38.752,2.599,28.73,2.648   C5.153,2.568,13.025,42.055,8.945,49.334c-0.007,0.014-0.012,0.025-0.02,0.039C12.292,46.729,15.652,44.346,17.597,43.835z" stroke="#353535" stroke-linecap="round" stroke-linejoin="round"/>
	
		<radialGradient gradientTransform="matrix(0.9852 0 0 -0.9852 -34.4844 -3033.9702)" id="svg1.body_1_" r="32.8445" cx="50.5117" gradientUnits="userSpaceOnUse" cy="-3134.7334">
		<stop offset="0" style="stop-color:#FFC373"/>
		<stop offset="1" style="stop-color:#FFB448"/>
	</radialGradient>
	<path fill="url(#svg1.body_1_)" d="M0.5,62.768c0,1.938,1.575,3.494,3.523,3.494h48.51   c1.947,0,3.521-1.559,3.521-3.494c0,0-1.844-6.861-6.525-11.543c-4.815-4.813-8.244-5.146-8.244-5.146   c-1.444,6.983-8.555,8.786-13.007,8.786s-11.322-2.643-11.941-9.439c0,0-4.559,1.199-9.367,5.674   C1.378,56.689,0.5,62.768,0.5,62.768z" id="svg1.body_9_" stroke="#ED8D00"/>
</g>
</svg>
      </g>
    </g>
    <g text-rendering="geometricPrecision" shape-rendering="geometricPrecision" transform="matrix(0.998,0,0,1.0279,23.6798,400.0799)">
      <g clip-path="url(#clipPath4)">
        <svg xml:space="preserve" opacity="1" writing-mode="lr-tb" stop-color="rgb(0, 0, 0)" shape-rendering="auto" glyph-orientation-horizontal="0deg" color-profile="auto" lighting-color="rgb(255, 255, 255)" color="rgb(0, 0, 0)" font-weight="400" alignment-baseline="auto" font-style="normal" version="1.1" color-interpolation-filters="linearrgb" text-anchor="start" stroke-linecap="butt" color-interpolation="srgb" font-variant="normal" word-spacing="normal" fill-opacity="1" text-rendering="auto" clip-path="none" text-decoration="none" letter-spacing="normal" viewBox="0 0 57 65" glyph-orientation-vertical="auto" display="inline" font-size-adjust="none" overflow="hidden" fill="rgb(0, 0, 0)" font-stretch="normal" stroke-dasharray="none" id="svg2.Ebene_1" stroke-miterlimit="4" stop-opacity="1" color-rendering="auto" font-size="12" pointer-events="visiblepainted" mask="none" direction="ltr" baseline-shift="baseline" enable-background="new 0 0 57 65" fill-rule="nonzero" image-rendering="auto" stroke-dashoffset="0" width="57px" marker-end="none" clip="auto" cursor="auto" stroke="none" filter="none" visibility="visible" kerning="auto" stroke-width="1" font-family="&quot;Arial&quot;,&quot;Helvetica&quot;,sans-serif" flood-opacity="1" clip-rule="nonzero" src="none" height="65px" unicode-bidi="normal" stroke-linejoin="miter" stroke-opacity="1" flood-color="rgb(0, 0, 0)" dominant-baseline="auto" marker-start="none" x="0px" marker-mid="none" y="0px">
<g>
	
		<linearGradient gradientTransform="matrix(1 0 0 1 0.3203 -3091.7656)" x1="26.3398" x2="27.5807" gradientUnits="userSpaceOnUse" y1="3115.7266" y2="3145.5239" id="svg2.SVGID_1_">
		<stop offset="0.2711" style="stop-color:#FFAB4F"/>
		<stop offset="1" style="stop-color:#FFD28F"/>
	</linearGradient>
	<path fill="url(#svg2.SVGID_1_)" d="M49.529,51.225c-4.396-4.396-10.951-5.884-12.063-6.109   V37.8H19.278c0,0,0.038,6.903,0,6.868c0,0-6.874,0.997-12.308,6.432C1.378,56.691,0.5,62.77,0.5,62.77   c0,1.938,1.575,3.492,3.523,3.492h48.51c1.947,0,3.521-1.558,3.521-3.492C56.055,62.768,54.211,55.906,49.529,51.225z" stroke-miterlimit="10" stroke="#ED9135"/>
	<path fill="#ECECEC" id="svg2.body_18_" d="M0.5,62.768c0,1.938,1.575,3.494,3.523,3.494h48.51   c1.947,0,3.521-1.559,3.521-3.494c0,0-1.844-6.861-6.525-11.543c-4.815-4.813-11.244-6.146-11.244-6.146   c-1.771,1.655-5.61,3.802-10.063,3.802c-4.453,0-8.292-2.146-10.063-3.802c0,0-5.755,0.586-11.189,6.021   C1.378,56.689,0.5,62.768,0.5,62.768z" stroke-miterlimit="10" stroke="#9B9B9B"/>
	
		<radialGradient gradientTransform="matrix(1 0 0 -1 0.04 64.1543)" id="svg2.SVGID_2_" r="17.7954" cx="22.6621" gradientUnits="userSpaceOnUse" cy="21.707">
		<stop offset="0" style="stop-color:#FCB57A"/>
		<stop offset="1" style="stop-color:#FF8C36"/>
	</radialGradient>
	<path fill="url(#svg2.SVGID_2_)" d="M28.106,33.486c-8.112,0-12.688,4.313-12.688,10.438   c0,7.422,12.688,10.438,12.688,10.438s14.688-3.016,14.688-10.438C42.793,38.75,36.215,33.486,28.106,33.486z M26.288,53.051   c0,0-7.135-2.093-8.805-7.201c-0.222-0.682,0.147-1.156,0.795-1.521V37.8h20.188v6.663c0.235,0.352,1.109,0.737,1.229,1.387   C40.445,49.917,26.288,53.051,26.288,53.051z" stroke="#E55E03"/>
	
		<radialGradient gradientTransform="matrix(1 0 0 1 0.0801 -773.6914)" id="svg2.SVGID_3_" r="32.3071" cx="15.2056" gradientUnits="userSpaceOnUse" cy="831.1875">
		<stop offset="0" style="stop-color:#FCB57A"/>
		<stop offset="1" style="stop-color:#FF8C36"/>
	</radialGradient>
	<path fill="url(#svg2.SVGID_3_)" d="M49.529,51.225c-2.239-2.24-5.041-3.724-7.396-4.67   c-2.854,5.51-14.021,7.807-14.021,7.807s-10.472-2.483-12.387-8.514c-2.439,0.771-5.787,2.287-8.749,5.25   c-5.592,5.592-6.47,11.67-6.47,11.67c0,1.938,1.575,3.492,3.523,3.492h48.51c1.946,0,3.521-1.558,3.521-3.492   C56.055,62.768,54.211,55.906,49.529,51.225z" stroke="#E55E03"/>
	
		<radialGradient gradientTransform="matrix(1 0 0 -1 0.04 64.1543)" id="svg2.SVGID_4_" r="11.8931" cx="17.0723" gradientUnits="userSpaceOnUse" cy="18.4907">
		<stop offset="0" style="stop-color:#FCB57A"/>
		<stop offset="1" style="stop-color:#FF8C36"/>
	</radialGradient>
	<path fill="url(#svg2.SVGID_4_)" d="M13.404,44.173c1.15-1.81,2.039-3.832,3.332-5.397   c-0.514,1.027-1.669,4.084-1.669,5.148c0,5.186,10.366,9.079,14.688,10.438c-3.472,1.627-9.134-1.498-11.334-2.359   c-3.601-1.419-4.071-3.063-5.89-4.854C12.523,47.135,12.878,45,13.404,44.173z" stroke="#E55E03"/>
	
		<radialGradient gradientTransform="matrix(1 0 0 -1 0.04 64.1543)" id="svg2.SVGID_5_" r="14.63" cx="31.8184" gradientUnits="userSpaceOnUse" cy="19.3525">
		<stop offset="0" style="stop-color:#FCB57A"/>
		<stop offset="1" style="stop-color:#FF8C36"/>
	</radialGradient>
	<path fill="url(#svg2.SVGID_5_)" d="M45.777,43.924c-1.317-1.568-5.11-9.424-6.604-6.617   c0.516,1.025,3.617,3.693,3.617,6.617c0,5.186-10.271,8.576-16.699,9.145c1.429,4.938,11.373,1.293,13.805-0.313   c3.563-2.354,4.563-5.133,7.854-3.705C47.754,49.045,48.006,46.574,45.777,43.924z" stroke="#E55E03"/>
	
		<radialGradient gradientTransform="matrix(1 0 0 -1 0.04 64.1543)" id="svg2.SVGID_6_" r="5.2028" cx="30.4893" gradientUnits="userSpaceOnUse" cy="4.8721">
		<stop offset="0" style="stop-color:#FCB57A"/>
		<stop offset="1" style="stop-color:#FF8C36"/>
	</radialGradient>
	<path fill="url(#svg2.SVGID_6_)" d="M30.777,54.167c0.357,0.836-0.153,1.983-0.352,2.813   c-0.256,1.084-0.072,2.104,0.102,3.186c0.164,1.02,0.156,2.107,0.25,3.167c0.082,0.916,0.482,1.849,0.357,2.75" stroke="#E55E03"/>
	
		<radialGradient gradientTransform="matrix(1 0 0 -1 0.04 64.1543)" id="svg2.SVGID_7_" r="5.5143" cx="23.2871" gradientUnits="userSpaceOnUse" cy="5.3008">
		<stop offset="0" style="stop-color:#FCB57A"/>
		<stop offset="1" style="stop-color:#FF8C36"/>
	</radialGradient>
	<path fill="url(#svg2.SVGID_7_)" d="M23.695,53.417c-0.508,0.584-0.476,2.209-0.398,3   c0.116,1.183,0.456,2.099,0.333,3.333c-0.192,1.943,0.154,4.479-0.436,6.333" stroke="#E55E03"/>
	
		<radialGradient gradientTransform="matrix(1 0 0 1 0.3203 -3091.7656)" gradientUnits="userSpaceOnUse" r="23.425" cx="27.5835" id="svg2.face_x5F_white_1_" cy="3117.4922" fx="23.0139" fy="3115.0024">
		<stop offset="0" style="stop-color:#FFD28F"/>
		<stop offset="1" style="stop-color:#FFAB4F"/>
	</radialGradient>
	<path fill="url(#svg2.face_x5F_white_1_)" id="svg2.face_x5F_white_3_" d="M43.676,23.357   c0.086,10.2-6.738,18.52-15.25,18.586c-8.5,0.068-15.464-8.146-15.55-18.344C12.794,13.4,19.618,5.079,28.123,5.012   C36.627,4.945,43.59,13.158,43.676,23.357z" stroke-miterlimit="10" stroke="#ED9135"/>
	
		<linearGradient gradientTransform="matrix(0.275 0 0 -0.2733 -1752.8849 -3351.7349)" x1="6468.501" x2="6492.1304" gradientUnits="userSpaceOnUse" y1="-12291.5195" y2="-12384.9688" id="svg2.face_highlight_1_">
		<stop offset="0" style="stop-color:#FFFFFF;stop-opacity:0.24"/>
		<stop offset="1" style="stop-color:#FFFFFF;stop-opacity:0.16"/>
	</linearGradient>
	<path fill="url(#svg2.face_highlight_1_)" id="svg2.face_highlight_3_" d="M28.415,5.625c-6.035,0.047-10.747,4.493-12.787,10.386   c-0.664,1.919-0.294,4.043,0.98,5.629c2.73,3.398,5.729,6.283,9.461,8.088c3.137,1.518,7.535,2.385,11.893,1.247   c2.274-0.592,3.988-2.459,4.375-4.766c0.187-1.094,0.293-2.289,0.283-3.553C42.54,13.244,36.729,5.56,28.415,5.625z"/>
	<path fill="#5C5C5C" d="M20.278,13.25   c3.417,4.333,9.333,6.917,9.333,6.917l-1.417-3.5c0,0,7.094,4.691,8.083,4.333c0.968-0.2-1.082-3.807-1.082-3.807   s3.138,1.795,4.854,3.969c1.803,2.28,4.285,3.504,4.285,3.504S47.027,2.719,27.289,2.744C8.278,2.709,12.058,27.678,12.058,27.678   L14.695,17c0,0,0.914,5.757,1.399,4.875C17.861,15.211,18.861,11.5,20.278,13.25z" id="svg2.Hair_Young_Black_1_" stroke="#353535" stroke-linecap="round" stroke-linejoin="round"/>
</g>
</svg>
      </g>
    </g>
    <g text-rendering="geometricPrecision" shape-rendering="geometricPrecision" transform="matrix(0.9989,0,0,1.0279,121.2029,227.512)">
      <g clip-path="url(#clipPath5)">
        <svg xml:space="preserve" opacity="1" writing-mode="lr-tb" stop-color="rgb(0, 0, 0)" shape-rendering="auto" glyph-orientation-horizontal="0deg" color-profile="auto" lighting-color="rgb(255, 255, 255)" color="rgb(0, 0, 0)" font-weight="400" alignment-baseline="auto" font-style="normal" version="1.1" color-interpolation-filters="linearrgb" text-anchor="start" stroke-linecap="butt" color-interpolation="srgb" font-variant="normal" word-spacing="normal" fill-opacity="1" text-rendering="auto" clip-path="none" text-decoration="none" letter-spacing="normal" viewBox="0 0 57 65" glyph-orientation-vertical="auto" display="inline" font-size-adjust="none" overflow="hidden" fill="rgb(0, 0, 0)" font-stretch="normal" stroke-dasharray="none" id="svg3.Ebene_1" stroke-miterlimit="4" stop-opacity="1" color-rendering="auto" font-size="12" pointer-events="visiblepainted" mask="none" direction="ltr" baseline-shift="baseline" enable-background="new 0 0 57 65" fill-rule="nonzero" image-rendering="auto" stroke-dashoffset="0" width="57px" marker-end="none" clip="auto" cursor="auto" stroke="none" filter="none" visibility="visible" kerning="auto" stroke-width="1" font-family="&quot;Arial&quot;,&quot;Helvetica&quot;,sans-serif" flood-opacity="1" clip-rule="nonzero" src="none" height="65px" unicode-bidi="normal" stroke-linejoin="miter" stroke-opacity="1" flood-color="rgb(0, 0, 0)" dominant-baseline="auto" marker-start="none" x="0px" marker-mid="none" y="0px">
<g>
	
		<linearGradient gradientTransform="matrix(1 0 0 1 0.1602 -1546.3828)" x1="26.5" x2="27.741" gradientUnits="userSpaceOnUse" y1="1570.3457" y2="1600.1431" id="svg3.SVGID_1_">
		<stop offset="0.2711" style="stop-color:#FFAB4F"/>
		<stop offset="1" style="stop-color:#FFD28F"/>
	</linearGradient>
	<path fill="url(#svg3.SVGID_1_)" d="M49.529,51.225c-4.396-4.396-10.951-5.884-12.063-6.109   V37.8H19.278c0,0,0.038,6.903,0,6.868c0,0-6.874,0.997-12.308,6.432C1.378,56.691,0.5,62.77,0.5,62.77   c0,1.938,1.575,3.492,3.523,3.492h48.51c1.947,0,3.521-1.558,3.521-3.492C56.055,62.768,54.211,55.906,49.529,51.225z" stroke-miterlimit="10" stroke="#ED9135"/>
	
		<radialGradient gradientTransform="matrix(1 0 0 1 0.1602 -1546.3828)" gradientUnits="userSpaceOnUse" r="23.4243" cx="27.7427" id="svg3.face_x5F_white_1_" cy="1572.1094" fx="23.1732" fy="1569.6195">
		<stop offset="0" style="stop-color:#FFD28F"/>
		<stop offset="1" style="stop-color:#FFAB4F"/>
	</radialGradient>
	<path fill="url(#svg3.face_x5F_white_1_)" id="svg3.face_x5F_white_3_" d="M43.676,23.357   c0.086,10.2-6.738,18.52-15.247,18.586c-8.502,0.068-15.466-8.146-15.552-18.344C12.794,13.4,19.618,5.079,28.123,5.012   C36.627,4.945,43.59,13.158,43.676,23.357z" stroke-miterlimit="10" stroke="#ED9135"/>
	
		<linearGradient gradientTransform="matrix(0.275 0 0 -0.2733 -977.2951 -1806.3545)" x1="3646.5117" x2="3670.1414" gradientUnits="userSpaceOnUse" y1="-6639.5884" y2="-6733.0391" id="svg3.face_highlight_1_">
		<stop offset="0" style="stop-color:#FFFFFF;stop-opacity:0.24"/>
		<stop offset="1" style="stop-color:#FFFFFF;stop-opacity:0.16"/>
	</linearGradient>
	<path fill="url(#svg3.face_highlight_1_)" id="svg3.face_highlight_3_" d="M27.958,6.333c-6.035,0.047-10.747,4.493-12.787,10.386   c-0.664,1.919-0.294,4.043,0.98,5.629c2.73,3.398,5.729,6.283,9.461,8.088c3.137,1.518,7.535,2.385,11.893,1.247   c2.274-0.592,3.988-2.459,4.375-4.766c0.183-1.094,0.293-2.289,0.283-3.553C42.083,13.952,36.271,6.268,27.958,6.333z"/>
	<path fill="#CC9869" d="M20.278,13.25   c3.417,4.333,9.333,6.917,9.333,6.917l-1.417-3.5c0,0,7.094,4.691,8.083,4.333c0.968-0.2-1.082-3.807-1.082-3.807   s3.138,1.795,4.854,3.969c1.803,2.28,4.285,3.504,4.285,3.504S47.027,2.719,27.289,2.744C8.278,2.709,12.058,27.678,12.058,27.678   L14.695,17c0,0,0.914,5.757,1.399,4.875C17.861,15.211,18.861,11.5,20.278,13.25z" id="svg3.Hair_Young_Brown_1_" stroke="#99724F" stroke-linecap="round" stroke-linejoin="round"/>
	
		<radialGradient gradientTransform="matrix(1 0 0 1 0.1602 -1546.3828)" id="svg3.collar_x5F_body_2_" r="32.4004" cx="15.1191" gradientUnits="userSpaceOnUse" cy="1603.5518">
		<stop offset="0" style="stop-color:#B0E8FF"/>
		<stop offset="1" style="stop-color:#74AEEE"/>
	</radialGradient>
	<path fill="url(#svg3.collar_x5F_body_2_)" d="M0.5,62.768c0,1.938,1.575,3.494,3.523,3.494   h48.51c1.947,0,3.521-1.559,3.521-3.494c0,0-1.844-6.861-6.525-11.543c-4.815-4.813-11.244-6.146-11.244-6.146   c-1.771,1.655-5.61,2.802-10.063,2.802c-4.453,0-8.292-1.146-10.063-2.802c0,0-5.755,0.586-11.189,6.021   C1.378,56.689,0.5,62.768,0.5,62.768z" id="svg3.collar_x5F_body_1_" stroke="#5491CF"/>
	
		<radialGradient gradientTransform="matrix(1 0 0 1 0.1602 -1546.3828)" id="svg3.collar_x5F_r_2_" r="9.2831" cx="31.46" gradientUnits="userSpaceOnUse" cy="1593.6777">
		<stop offset="0" style="stop-color:#80CCFF"/>
		<stop offset="1" style="stop-color:#74AEEE"/>
	</radialGradient>
	<path fill="url(#svg3.collar_x5F_r_2_)" d="M38.159,41.381c0,0-0.574,2.369-3.013,4.441   c-2.108,1.795-5.783,2.072-5.783,2.072l3.974,6.217c0,0,2.957-1.637,5.009-3.848c1.922-2.072,1.37-5.479,1.37-5.479L38.159,41.381z   " id="svg3.collar_x5F_r_1_" stroke="#5491CF"/>
	
		<radialGradient gradientTransform="matrix(1 0 0 1 0.1602 -1546.3828)" id="svg3.collar_x5F_l_2_" r="9.2837" cx="19.0977" gradientUnits="userSpaceOnUse" cy="1593.7188">
		<stop offset="0" style="stop-color:#80CCFF"/>
		<stop offset="1" style="stop-color:#74AEEE"/>
	</radialGradient>
	<path fill="url(#svg3.collar_x5F_l_2_)" d="M18.63,41.422c0,0,0.576,2.369,3.012,4.441   c2.109,1.793,5.785,2.072,5.785,2.072l-3.974,6.217c0,0-2.957-1.637-5.007-3.85c-1.922-2.072-1.37-5.48-1.37-5.48L18.63,41.422z" id="svg3.collar_x5F_l_1_" stroke="#5491CF"/>
	
		<linearGradient gradientTransform="matrix(0.9852 0 0 -0.9852 -18.8086 -1488.5884)" x1="79.9941" x2="15.6017" gradientUnits="userSpaceOnUse" y1="-1567.4565" y2="-1567.4565" id="svg3.body_1_">
		<stop offset="0" style="stop-color:#49AD33"/>
		<stop offset="1" style="stop-color:#C2DA92"/>
	</linearGradient>
	<path fill="url(#svg3.body_1_)" d="M0.5,62.768c0,1.938,1.575,3.494,3.523,3.494h48.51   c1.947,0,3.521-1.559,3.521-3.494c0,0-1.844-6.861-6.525-11.543c-4.815-4.813-11.244-6.146-11.244-6.146   c-1.771,1.655-5.61,2.802-10.063,2.802c-4.453,0-8.292-1.146-10.063-2.802c0,0-5.755,0.586-11.189,6.021   C1.378,56.689,0.5,62.768,0.5,62.768z" id="svg3.body_9_" stroke="#008D33"/>
	
		<linearGradient gradientTransform="matrix(1 0 0 1 0.1602 -1546.3828)" x1="41.248" x2="15.2274" gradientUnits="userSpaceOnUse" y1="1593.0166" y2="1593.0166" id="svg3.turtleneck_1_">
		<stop offset="0" style="stop-color:#49AD33"/>
		<stop offset="1" style="stop-color:#C2DA92"/>
	</linearGradient>
	<path fill="url(#svg3.turtleneck_1_)" d="M39.715,44.786l-1.557-3.405c0,0-0.574,2.369-3.012,4.441   c-2.109,1.795-6.785,2.072-6.785,2.072s-4.753-0.356-6.722-2.031c-2.436-2.072-3.012-4.441-3.012-4.441l-1.555,3.404   c0,0-0.552,1.404,1.37,3.479c1.025,1.105,5.203,3.611,9.682,3.582c4.479-0.029,9.264-2.594,10.218-3.623   C40.266,46.191,39.715,44.786,39.715,44.786z" id="svg3.turtleneck_6_" stroke="#008D33"/>
	<path fill="#CC9869" d="M36.118,33.275   c-0.614,0.828-2.054,1.397-3.662,1.344c-1.399-0.047-2.694-0.286-3.429-0.787c-0.183-0.125-0.499-0.598-0.604-0.604   c-0.136-0.004-0.458,0.476-0.649,0.604c-1.382,0.932-4.73,1.074-6.257,0.139c-0.427-0.262-0.919-0.615-1.066-1.113   c-0.317-1.076,0.336,0.16,1.715-0.092c1.615-0.295,3.577-4.193,5.887-2.596c0.118,0.082,0.274,0.324,0.325,0.325   c0.099,0.002,0.64-0.503,0.788-0.556c2.393-0.859,3.818,2.568,5.377,2.828C35.346,32.899,36.844,32.295,36.118,33.275z" stroke-width="0.9271" stroke="#99724F" stroke-linecap="round" stroke-linejoin="round"/>
</g>
</svg>
      </g>
    </g>
    <g text-rendering="geometricPrecision" stroke-miterlimit="1.45" shape-rendering="geometricPrecision" transform="matrix(1,0,0,1,879,381)" stroke-linecap="butt">
      <rect x="-65.92" y="-318.2559" clip-path="url(#clipPath2)" fill="none" width="354.48" rx="4" ry="4" height="55"/>
      <text x="-59.92" xml:space="preserve" y="-301.1172" clip-path="url(#clipPath2)" font-family="sans-serif" stroke="none">NOTE: We ommited a couple of technical aspects such</text>
      <text x="-59.92" xml:space="preserve" y="-287.1484" clip-path="url(#clipPath2)" font-family="sans-serif" stroke="none">as base64 encoding of payload for the sake of simplicity.</text>
    </g>
    <g fill="rgb(51,153,102)" text-rendering="geometricPrecision" shape-rendering="geometricPrecision" transform="matrix(1,0,0,1,879,381)" stroke="rgb(51,153,102)">
      <rect x="-521.24" width="66.76" height="19.44" y="-133.4" clip-path="url(#clipPath2)" stroke="none"/>
    </g>
    <g text-rendering="geometricPrecision" stroke-miterlimit="1.45" shape-rendering="geometricPrecision" transform="matrix(1,0,0,1,879,381)" stroke-linecap="butt">
      <rect fill="none" x="-521.24" width="66.76" height="19.44" y="-133.4" clip-path="url(#clipPath2)"/>
      <text x="-517.24" font-size="10px" y="-120.1178" clip-path="url(#clipPath2)" font-family="sans-serif" stroke="none" xml:space="preserve">Expire in 1y</text>
    </g>
    <g fill="rgb(51,153,102)" text-rendering="geometricPrecision" shape-rendering="geometricPrecision" transform="matrix(1,0,0,1,879,381)" stroke="rgb(51,153,102)">
      <rect x="-521.48" width="73.12" height="19.44" y="-18.96" clip-path="url(#clipPath2)" stroke="none"/>
    </g>
    <g text-rendering="geometricPrecision" stroke-miterlimit="1.45" shape-rendering="geometricPrecision" transform="matrix(1,0,0,1,879,381)" stroke-linecap="butt">
      <rect fill="none" x="-521.48" width="73.12" height="19.44" y="-18.96" clip-path="url(#clipPath2)"/>
      <text x="-517.48" font-size="10px" y="-5.6778" clip-path="url(#clipPath2)" font-family="sans-serif" stroke="none" xml:space="preserve">Never expire</text>
    </g>
    <g fill="rgb(51,153,102)" text-rendering="geometricPrecision" shape-rendering="geometricPrecision" transform="matrix(1,0,0,1,879,381)" stroke="rgb(51,153,102)">
      <rect x="-524.56" width="71.2" height="19.44" y="56.36" clip-path="url(#clipPath2)" stroke="none"/>
    </g>
    <g text-rendering="geometricPrecision" stroke-miterlimit="1.45" shape-rendering="geometricPrecision" transform="matrix(1,0,0,1,879,381)" stroke-linecap="butt">
      <rect fill="none" x="-524.56" width="71.2" height="19.44" y="56.36" clip-path="url(#clipPath2)"/>
      <text x="-520.56" font-size="10px" y="69.6422" clip-path="url(#clipPath2)" font-family="sans-serif" stroke="none" xml:space="preserve">Expire in 9d</text>
      <path fill="none" d="M-448.36 -123.68 L-349.68 -136.2433" stroke-width="3" clip-path="url(#clipPath2)"/>
      <path d="M-339.7601 -137.5062 L-355.4293 -141.8117 L-350.92 -136.0854 L-353.8506 -129.4118 Z" stroke-width="3" clip-path="url(#clipPath2)" stroke="none"/>
      <path fill="none" d="M-158.1342 -153.9263 L-75.95 -158.4303" stroke-width="3" clip-path="url(#clipPath2)"/>
      <path d="M-65.965 -158.9775 L-81.2846 -164.3973 L-77.1982 -158.3619 L-80.6005 -151.9161 Z" stroke-width="3" clip-path="url(#clipPath2)" stroke="none"/>
      <path fill="none" d="M-167.7939 -130.9632 L-75.7191 -111.0584" stroke-width="3" clip-path="url(#clipPath2)"/>
      <path d="M-65.9449 -108.9454 L-79.2856 -118.2238 L-76.9409 -111.3225 L-81.9268 -106.006 Z" stroke-width="3" clip-path="url(#clipPath2)" stroke="none"/>
      <path fill="none" d="M-157.34 60.26 L-75.6 60.26" stroke-width="3" clip-path="url(#clipPath2)"/>
      <path d="M-65.6 60.26 L-80.6 54.01 L-76.85 60.26 L-80.6 66.51 Z" stroke-width="3" clip-path="url(#clipPath2)" stroke="none"/>
      <path fill="none" d="M-492.4325 -266.0959 L-284.0753 15.0614" stroke-width="3" clip-path="url(#clipPath2)"/>
      <path d="M-278.1213 23.0957 L-282.0309 7.323 L-284.8195 14.0571 L-292.0737 14.7655 Z" stroke-width="3" clip-path="url(#clipPath2)" stroke="none"/>
      <path fill="none" d="M-476.1964 -266.0959 L-317.8282 -183.8039" stroke-width="3" clip-path="url(#clipPath2)"/>
      <path d="M-308.9547 -179.1929 L-319.3832 -191.6553 L-318.9374 -184.3802 L-325.1468 -180.5634 Z" stroke-width="3" clip-path="url(#clipPath2)" stroke="none"/>
      <path fill="none" d="M-427.0872 153.2959 L-317.2939 95.4245" stroke-width="3" clip-path="url(#clipPath2)"/>
      <path d="M-308.4475 90.7616 L-324.6313 92.2269 L-318.3997 96.0073 L-318.8028 103.2849 Z" stroke-width="3" clip-path="url(#clipPath2)" stroke="none"/>
      <path fill="none" d="M-343.6716 -283.5617 L-386.7228 -282.547" stroke-width="3" clip-path="url(#clipPath2)"/>
      <path d="M-396.72 -282.3114 L-381.5769 -276.4166 L-385.4731 -282.5765 L-381.8714 -288.9131 Z" stroke-width="3" clip-path="url(#clipPath2)" stroke="none"/>
      <path fill="none" d="M-660.5506 -34.3627 L-603.7416 -12.8008" stroke-width="3" clip-path="url(#clipPath2)"/>
      <path d="M-594.3923 -9.2523 L-606.1984 -20.4183 L-604.9102 -13.2443 L-610.634 -8.7317 Z" stroke-width="3" clip-path="url(#clipPath2)" stroke="none"/>
      <path fill="none" d="M-446.6 -9.24 L-305.85 -109.4926" stroke-width="3" clip-path="url(#clipPath2)"/>
      <path d="M-297.7049 -115.2941 L-313.5485 -111.6825 L-306.8681 -108.7674 L-306.2966 -101.5012 Z" stroke-width="3" clip-path="url(#clipPath2)" stroke="none"/>
      <path fill="none" d="M-189.8705 -119.3356 L-74.6233 -63.2882" stroke-width="3" clip-path="url(#clipPath2)"/>
      <path d="M-65.6303 -58.9148 L-76.3863 -71.0955 L-75.7474 -63.8349 L-81.8531 -59.8544 Z" stroke-width="3" clip-path="url(#clipPath2)" stroke="none"/>
      <path fill="none" d="M-691.5878 -25.0046 L-601.6816 59.221" stroke-width="3" clip-path="url(#clipPath2)"/>
      <path d="M-594.3837 66.0578 L-601.0576 51.2415 L-602.5938 58.3664 L-609.6035 60.3638 Z" stroke-width="3" clip-path="url(#clipPath2)" stroke="none"/>
      <path fill="none" d="M-446.6 66.08 L-290.4753 -105.1139" stroke-width="3" clip-path="url(#clipPath2)"/>
      <path d="M-283.737 -112.5027 L-298.4625 -105.631 L-291.3177 -104.1903 L-289.2266 -97.208 Z" stroke-width="3" clip-path="url(#clipPath2)" stroke="none"/>
      <path fill="none" d="M-812.0864 -176.7056 L-761.8212 -105.9857" stroke-width="3" clip-path="url(#clipPath2)"/>
      <path d="M-756.0278 -97.8349 L-759.6236 -113.682 L-762.5454 -107.0046 L-769.8122 -106.4403 Z" stroke-width="3" clip-path="url(#clipPath2)" stroke="none"/>
      <path fill="none" d="M-810.6835 34.4792 L-767.3145 -16.2936" stroke-width="3" clip-path="url(#clipPath2)"/>
      <path d="M-760.8195 -23.8972 L-775.3142 -16.5511 L-768.1263 -15.3431 L-765.8096 -8.4324 Z" stroke-width="3" clip-path="url(#clipPath2)" stroke="none"/>
    </g>
  </g>
</svg>
