<?xml version="1.0" encoding="UTF-8"?><svg xmlns="http://www.w3.org/2000/svg" xmlns:xlink="http://www.w3.org/1999/xlink" fill-opacity="1" color-rendering="auto" color-interpolation="auto" text-rendering="auto" stroke="black" stroke-linecap="square" width="1085" stroke-miterlimit="10" shape-rendering="auto" stroke-opacity="1" fill="black" stroke-dasharray="none" font-weight="normal" stroke-width="1" height="661" font-family="'Dialog'" font-style="normal" stroke-linejoin="miter" font-size="12px" stroke-dashoffset="0" image-rendering="auto">
  <!--Generated by ySVG 2.5-->
  <defs id="genericDefs"/>
  <g>
    <defs id="defs1">
      <clipPath clipPathUnits="userSpaceOnUse" id="clipPath1">
        <path d="M0 0 L1085 0 L1085 661 L0 661 L0 0 Z"/>
      </clipPath>
      <clipPath clipPathUnits="userSpaceOnUse" id="clipPath2">
        <path d="M-1203 -764 L-118 -764 L-118 -103 L-1203 -103 L-1203 -764 Z"/>
      </clipPath>
      <clipPath clipPathUnits="userSpaceOnUse" id="clipPath3">
        <path d="M-259.8759 -118.7251 L827.2835 -118.7251 L827.2835 524.3101 L-259.8759 524.3101 L-259.8759 -118.7251 Z"/>
      </clipPath>
    </defs>
    <g fill="white" text-rendering="geometricPrecision" shape-rendering="geometricPrecision" transform="translate(1203,764)" stroke="white">
      <rect x="-1203" width="1085" height="661" y="-764" clip-path="url(#clipPath2)" stroke="none"/>
    </g>
    <g fill="silver" text-rendering="geometricPrecision" shape-rendering="geometricPrecision" transform="matrix(1,0,0,1,1203,764)" stroke="silver">
      <rect x="-887.0802" width="190.96" height="161.96" y="-688.39" clip-path="url(#clipPath2)" stroke="none"/>
    </g>
    <g text-rendering="geometricPrecision" stroke-miterlimit="1.45" shape-rendering="geometricPrecision" transform="matrix(1,0,0,1,1203,764)" stroke-linecap="butt">
      <rect fill="none" x="-887.0802" width="190.96" height="161.96" y="-688.39" clip-path="url(#clipPath2)"/>
      <text x="-881.0801" xml:space="preserve" y="-671.2513" clip-path="url(#clipPath2)" font-family="sans-serif" stroke="none">~/.gnupg</text>
      <text x="-881.0801" xml:space="preserve" y="-657.2826" clip-path="url(#clipPath2)" font-family="sans-serif" stroke="none">(gpg home / keyring)</text>
    </g>
    <g fill="rgb(255,204,0)" text-rendering="geometricPrecision" shape-rendering="geometricPrecision" transform="matrix(1,0,0,1,1203,764)" stroke="rgb(255,204,0)">
      <rect x="-874.2802" width="161.84" height="105.92" y="-649.35" clip-path="url(#clipPath2)" stroke="none"/>
    </g>
    <g text-rendering="geometricPrecision" stroke-miterlimit="1.45" shape-rendering="geometricPrecision" transform="matrix(1,0,0,1,1203,764)" stroke-linecap="butt">
      <rect fill="none" x="-874.2802" width="161.84" height="105.92" y="-649.35" clip-path="url(#clipPath2)"/>
      <text x="-868.2802" xml:space="preserve" y="-632.2113" clip-path="url(#clipPath2)" font-family="sans-serif" stroke="none">RecipientAGpgKeypair</text>
    </g>
    <g fill="rgb(156,59,253)" text-rendering="geometricPrecision" shape-rendering="geometricPrecision" transform="matrix(1,0,0,1,1203,764)" stroke="rgb(156,59,253)">
      <rect x="-643.116" y="-714.032" clip-path="url(#clipPath2)" width="231.56" rx="4" ry="4" height="595.502" stroke="none"/>
    </g>
    <g text-rendering="geometricPrecision" stroke-miterlimit="1.45" shape-rendering="geometricPrecision" transform="matrix(1,0,0,1,1203,764)" stroke-linecap="butt">
      <rect x="-643.116" y="-714.032" clip-path="url(#clipPath2)" fill="none" width="231.56" rx="4" ry="4" height="595.502"/>
      <text x="-546.3672" xml:space="preserve" y="-696.8933" clip-path="url(#clipPath2)" font-family="sans-serif" stroke="none">gnupg</text>
    </g>
    <g fill="silver" text-rendering="geometricPrecision" shape-rendering="geometricPrecision" transform="matrix(1,0,0,1,1203,764)" stroke="silver">
      <rect x="-365.272" width="231.56" height="84.96" y="-610.15" clip-path="url(#clipPath2)" stroke="none"/>
    </g>
    <g text-rendering="geometricPrecision" stroke-miterlimit="1.45" shape-rendering="geometricPrecision" transform="matrix(1,0,0,1,1203,764)" stroke-linecap="butt">
      <rect fill="none" x="-365.272" width="231.56" height="84.96" y="-610.15" clip-path="url(#clipPath2)"/>
      <text x="-359.272" xml:space="preserve" y="-593.0114" clip-path="url(#clipPath2)" font-family="sans-serif" stroke="none">secure-memory-bloc</text>
    </g>
    <g fill="rgb(255,204,0)" text-rendering="geometricPrecision" shape-rendering="geometricPrecision" transform="matrix(1,0,0,1,1203,764)" stroke="rgb(255,204,0)">
      <rect x="-867.2402" width="147.76" height="27.44" y="-619.35" clip-path="url(#clipPath2)" stroke="none"/>
    </g>
    <g text-rendering="geometricPrecision" stroke-miterlimit="1.45" shape-rendering="geometricPrecision" transform="matrix(1,0,0,1,1203,764)" stroke-linecap="butt">
      <rect fill="none" x="-867.2402" width="147.76" height="27.44" y="-619.35" clip-path="url(#clipPath2)"/>
      <text x="-861.2402" xml:space="preserve" y="-602.2113" clip-path="url(#clipPath2)" font-family="sans-serif" stroke="none">PublicKey</text>
    </g>
    <g fill="rgb(255,123,0)" text-rendering="geometricPrecision" shape-rendering="geometricPrecision" transform="matrix(1,0,0,1,1203,764)" stroke="rgb(255,123,0)">
      <rect x="-867.2402" width="147.76" height="27.44" y="-581.39" clip-path="url(#clipPath2)" stroke="none"/>
    </g>
    <g text-rendering="geometricPrecision" stroke-miterlimit="1.45" shape-rendering="geometricPrecision" transform="matrix(1,0,0,1,1203,764)" stroke-linecap="butt">
      <rect fill="none" x="-867.2402" width="147.76" height="27.44" y="-581.39" clip-path="url(#clipPath2)"/>
      <text x="-861.2402" xml:space="preserve" y="-564.2513" clip-path="url(#clipPath2)" font-family="sans-serif" stroke="none">PrivateKey</text>
    </g>
    <g fill="rgb(153,204,0)" text-rendering="geometricPrecision" shape-rendering="geometricPrecision" transform="matrix(1,0,0,1,1203,764)" stroke="rgb(153,204,0)">
      <ellipse rx="93.24" ry="38.9" clip-path="url(#clipPath2)" cx="-521.03" cy="-567.67" stroke="none"/>
    </g>
    <g text-rendering="geometricPrecision" stroke-miterlimit="1.45" shape-rendering="geometricPrecision" transform="matrix(1,0,0,1,1203,764)" stroke-linecap="butt">
      <ellipse rx="93.24" fill="none" ry="38.9" clip-path="url(#clipPath2)" cx="-521.03" cy="-567.67"/>
      <text x="-588.4832" xml:space="preserve" y="-570.5001" clip-path="url(#clipPath2)" font-family="sans-serif" stroke="none">1 - Decrypt secret gpg</text>
      <text x="-581.8621" xml:space="preserve" y="-556.5313" clip-path="url(#clipPath2)" font-family="sans-serif" stroke="none">packet symetric key</text>
    </g>
    <g fill="silver" text-rendering="geometricPrecision" shape-rendering="geometricPrecision" transform="matrix(1,0,0,1,1203,764)" stroke="silver">
      <rect x="-1077.0401" width="382.5598" height="365.2" y="-483.73" clip-path="url(#clipPath2)" stroke="none"/>
    </g>
    <g text-rendering="geometricPrecision" stroke-miterlimit="1.45" shape-rendering="geometricPrecision" transform="matrix(1,0,0,1,1203,764)" stroke-linecap="butt">
      <rect fill="none" x="-1077.0401" width="382.5598" height="365.2" y="-483.73" clip-path="url(#clipPath2)"/>
      <text x="-1071.04" xml:space="preserve" y="-466.5913" clip-path="url(#clipPath2)" font-family="sans-serif" stroke="none">my-secret-file.txt.b64.gpg</text>
    </g>
    <g fill="rgb(255,204,0)" text-rendering="geometricPrecision" shape-rendering="geometricPrecision" transform="matrix(1,0,0,1,1203,764)" stroke="rgb(255,204,0)">
      <rect x="-1062.3601" width="354.48" height="321.2" y="-448.33" clip-path="url(#clipPath2)" stroke="none"/>
    </g>
    <g text-rendering="geometricPrecision" stroke-miterlimit="1.45" shape-rendering="geometricPrecision" transform="matrix(1,0,0,1,1203,764)" stroke-linecap="butt">
      <rect fill="none" x="-1062.3601" width="354.48" height="321.2" y="-448.33" clip-path="url(#clipPath2)"/>
      <text x="-1056.3601" xml:space="preserve" y="-431.1913" clip-path="url(#clipPath2)" font-family="sans-serif" stroke="none">GpgPacket</text>
    </g>
    <g fill="rgb(255,123,0)" text-rendering="geometricPrecision" shape-rendering="geometricPrecision" transform="matrix(1,0,0,1,1203,764)" stroke="rgb(255,123,0)">
      <rect x="-1052.1201" width="333.36" height="41.52" y="-420.85" clip-path="url(#clipPath2)" stroke="none"/>
    </g>
    <g text-rendering="geometricPrecision" stroke-miterlimit="1.45" shape-rendering="geometricPrecision" transform="matrix(1,0,0,1,1203,764)" stroke-linecap="butt">
      <rect fill="none" x="-1052.1201" width="333.36" height="41.52" y="-420.85" clip-path="url(#clipPath2)"/>
      <text x="-1046.1201" xml:space="preserve" y="-403.7113" clip-path="url(#clipPath2)" font-family="sans-serif" stroke="none">RecipientAEncryptedSymetricKey</text>
      <text x="-1046.1201" xml:space="preserve" y="-389.7426" clip-path="url(#clipPath2)" font-family="sans-serif" stroke="none">(ViaRecipientPubKey)</text>
    </g>
    <g fill="rgb(255,123,0)" text-rendering="geometricPrecision" shape-rendering="geometricPrecision" transform="matrix(1,0,0,1,1203,764)" stroke="rgb(255,123,0)">
      <rect x="-1051.8001" width="333.36" height="179.76" y="-320.77" clip-path="url(#clipPath2)" stroke="none"/>
    </g>
    <g text-rendering="geometricPrecision" stroke-miterlimit="1.45" shape-rendering="geometricPrecision" transform="matrix(1,0,0,1,1203,764)" stroke-linecap="butt">
      <rect fill="none" x="-1051.8001" width="333.36" height="179.76" y="-320.77" clip-path="url(#clipPath2)"/>
      <text x="-1045.8" xml:space="preserve" y="-303.6313" clip-path="url(#clipPath2)" font-family="sans-serif" stroke="none">EntryptedSecretPayload</text>
      <text x="-1045.8" xml:space="preserve" y="-289.6626" clip-path="url(#clipPath2)" font-family="sans-serif" stroke="none">(ViaBelowSymetricKey)</text>
    </g>
    <g fill="rgb(255,204,0)" text-rendering="geometricPrecision" shape-rendering="geometricPrecision" transform="matrix(1,0,0,1,1203,764)" stroke="rgb(255,204,0)">
      <rect x="-1052.1201" width="333.36" height="41.52" y="-370.81" clip-path="url(#clipPath2)" stroke="none"/>
    </g>
    <g text-rendering="geometricPrecision" stroke-miterlimit="1.45" shape-rendering="geometricPrecision" transform="matrix(1,0,0,1,1203,764)" stroke-linecap="butt">
      <rect fill="none" x="-1052.1201" width="333.36" height="41.52" y="-370.81" clip-path="url(#clipPath2)"/>
      <text x="-1046.1201" xml:space="preserve" y="-353.6713" clip-path="url(#clipPath2)" font-family="sans-serif" stroke="none">RecipientBEncryptedSymetricKey</text>
      <text x="-1046.1201" xml:space="preserve" y="-339.7026" clip-path="url(#clipPath2)" font-family="sans-serif" stroke="none">(ViaRecipientPubKey)</text>
    </g>
    <g fill="rgb(153,204,0)" text-rendering="geometricPrecision" shape-rendering="geometricPrecision" transform="matrix(1,0,0,1,1203,764)" stroke="rgb(153,204,0)">
      <ellipse rx="93.24" ry="38.9" clip-path="url(#clipPath2)" cx="-527.336" cy="-230.89" stroke="none"/>
    </g>
    <g text-rendering="geometricPrecision" stroke-miterlimit="1.45" shape-rendering="geometricPrecision" transform="matrix(1,0,0,1,1203,764)" stroke-linecap="butt">
      <ellipse rx="93.24" fill="none" ry="38.9" clip-path="url(#clipPath2)" cx="-527.336" cy="-230.89"/>
      <text x="-607.2227" xml:space="preserve" y="-226.7357" clip-path="url(#clipPath2)" font-family="sans-serif" stroke="none">2 - Decrypt secret payload</text>
    </g>
    <g fill="rgb(255,123,0)" text-rendering="geometricPrecision" shape-rendering="geometricPrecision" transform="matrix(1,0,0,1,1203,764)" stroke="rgb(255,123,0)">
      <rect x="-357.792" width="211.76" height="27.44" y="-579.03" clip-path="url(#clipPath2)" stroke="none"/>
    </g>
    <g text-rendering="geometricPrecision" stroke-miterlimit="1.45" shape-rendering="geometricPrecision" transform="matrix(1,0,0,1,1203,764)" stroke-linecap="butt">
      <rect fill="none" x="-357.792" width="211.76" height="27.44" y="-579.03" clip-path="url(#clipPath2)"/>
      <text x="-351.792" xml:space="preserve" y="-561.8914" clip-path="url(#clipPath2)" font-family="sans-serif" stroke="none">DecryptedGpgPacketSymetricKey</text>
    </g>
    <g fill="silver" text-rendering="geometricPrecision" shape-rendering="geometricPrecision" transform="matrix(1,0,0,1,1203,764)" stroke="silver">
      <rect x="-368.192" width="211.76" height="124.92" y="-301.35" clip-path="url(#clipPath2)" stroke="none"/>
    </g>
    <g text-rendering="geometricPrecision" stroke-miterlimit="1.45" shape-rendering="geometricPrecision" transform="matrix(1,0,0,1,1203,764)" stroke-linecap="butt">
      <rect fill="none" x="-368.192" width="211.76" height="124.92" y="-301.35" clip-path="url(#clipPath2)"/>
      <text x="-362.192" xml:space="preserve" y="-284.2113" clip-path="url(#clipPath2)" font-family="sans-serif" stroke="none">my-secret-file.txt</text>
    </g>
    <g fill="rgb(255,123,0)" text-rendering="geometricPrecision" shape-rendering="geometricPrecision" transform="matrix(1,0,0,1,1203,764)" stroke="rgb(255,123,0)">
      <rect x="-357.792" width="190.96" height="84.96" y="-276.95" clip-path="url(#clipPath2)" stroke="none"/>
    </g>
    <g text-rendering="geometricPrecision" stroke-miterlimit="1.45" shape-rendering="geometricPrecision" transform="matrix(1,0,0,1,1203,764)" stroke-linecap="butt">
      <rect fill="none" x="-357.792" width="190.96" height="84.96" y="-276.95" clip-path="url(#clipPath2)"/>
      <text x="-351.792" xml:space="preserve" y="-259.8113" clip-path="url(#clipPath2)" font-family="sans-serif" stroke="none">DecryptedSecretPayload</text>
      <rect x="-1187.7202" y="-553.95" clip-path="url(#clipPath2)" fill="none" width="290.48" rx="4" ry="4" height="55.466"/>
      <text x="-1181.7202" xml:space="preserve" y="-536.8113" clip-path="url(#clipPath2)" font-family="sans-serif" stroke="none">NOTE: We ommited a couple of technical</text>
      <text x="-1181.7202" xml:space="preserve" y="-522.8426" clip-path="url(#clipPath2)" font-family="sans-serif" stroke="none">aspects such as base64 payload decoding</text>
      <text x="-1181.7202" xml:space="preserve" y="-508.8738" clip-path="url(#clipPath2)" font-family="sans-serif" stroke="none">for the sake of simplicity.</text>
      <rect x="-1039.712" y="-748.91" clip-path="url(#clipPath2)" fill="none" width="354.48" rx="4" ry="4" height="52.52"/>
      <text x="-1033.712" xml:space="preserve" y="-731.7713" clip-path="url(#clipPath2)" font-family="sans-serif" stroke="none">NOTE: Decryption process does not care about</text>
      <text x="-1033.712" xml:space="preserve" y="-717.8026" clip-path="url(#clipPath2)" font-family="sans-serif" stroke="none">public key expiration as it does not even use</text>
      <text x="-1033.712" xml:space="preserve" y="-703.8338" clip-path="url(#clipPath2)" font-family="sans-serif" stroke="none">the public key.</text>
    </g>
    <g text-rendering="geometricPrecision" shape-rendering="geometricPrecision" transform="matrix(0.998,0,0,1.0279,259.3597,122.042)">
      <g clip-path="url(#clipPath3)">
        <svg xml:space="preserve" opacity="1" writing-mode="lr-tb" stop-color="rgb(0, 0, 0)" shape-rendering="auto" glyph-orientation-horizontal="0deg" color-profile="auto" lighting-color="rgb(255, 255, 255)" color="rgb(0, 0, 0)" font-weight="400" alignment-baseline="auto" font-style="normal" version="1.1" color-interpolation-filters="linearrgb" text-anchor="start" stroke-linecap="butt" color-interpolation="srgb" font-variant="normal" word-spacing="normal" fill-opacity="1" text-rendering="auto" clip-path="none" text-decoration="none" letter-spacing="normal" viewBox="0 0 57 65" glyph-orientation-vertical="auto" display="inline" font-size-adjust="none" overflow="hidden" fill="rgb(0, 0, 0)" font-stretch="normal" stroke-dasharray="none" id="svg1.Ebene_1" stroke-miterlimit="4" stop-opacity="1" color-rendering="auto" font-size="12" pointer-events="visiblepainted" mask="none" direction="ltr" baseline-shift="baseline" enable-background="new 0 0 57 65" fill-rule="nonzero" image-rendering="auto" stroke-dashoffset="0" width="57px" marker-end="none" clip="auto" cursor="auto" stroke="none" filter="none" visibility="visible" kerning="auto" stroke-width="1" font-family="&quot;Arial&quot;,&quot;Helvetica&quot;,sans-serif" flood-opacity="1" clip-rule="nonzero" src="none" height="65px" unicode-bidi="normal" stroke-linejoin="miter" stroke-opacity="1" flood-color="rgb(0, 0, 0)" dominant-baseline="auto" marker-start="none" x="0px" marker-mid="none" y="0px">
<g>

		<linearGradient gradientTransform="matrix(1 0 0 1 0.3203 -3091.7656)" x1="26.3398" x2="27.5807" gradientUnits="userSpaceOnUse" y1="3115.7266" y2="3145.5239" id="svg1.SVGID_1_">
		<stop offset="0.2711" style="stop-color:#FFAB4F"/>
		<stop offset="1" style="stop-color:#FFD28F"/>
	</linearGradient>
	<path fill="url(#svg1.SVGID_1_)" d="M49.529,51.225c-4.396-4.396-10.951-5.884-12.063-6.109   V37.8H19.278c0,0,0.038,6.903,0,6.868c0,0-6.874,0.997-12.308,6.432C1.378,56.691,0.5,62.77,0.5,62.77   c0,1.938,1.575,3.492,3.523,3.492h48.51c1.947,0,3.521-1.558,3.521-3.492C56.055,62.768,54.211,55.906,49.529,51.225z" stroke-miterlimit="10" stroke="#ED9135"/>
	<path fill="#ECECEC" id="svg1.body_18_" d="M0.5,62.768c0,1.938,1.575,3.494,3.523,3.494h48.51   c1.947,0,3.521-1.559,3.521-3.494c0,0-1.844-6.861-6.525-11.543c-4.815-4.813-11.244-6.146-11.244-6.146   c-1.771,1.655-5.61,3.802-10.063,3.802c-4.453,0-8.292-2.146-10.063-3.802c0,0-5.755,0.586-11.189,6.021   C1.378,56.689,0.5,62.768,0.5,62.768z" stroke-miterlimit="10" stroke="#9B9B9B"/>

		<radialGradient gradientTransform="matrix(1 0 0 -1 0.04 64.1543)" id="svg1.SVGID_2_" r="17.7954" cx="22.6621" gradientUnits="userSpaceOnUse" cy="21.707">
		<stop offset="0" style="stop-color:#FCB57A"/>
		<stop offset="1" style="stop-color:#FF8C36"/>
	</radialGradient>
	<path fill="url(#svg1.SVGID_2_)" d="M28.106,33.486c-8.112,0-12.688,4.313-12.688,10.438   c0,7.422,12.688,10.438,12.688,10.438s14.688-3.016,14.688-10.438C42.793,38.75,36.215,33.486,28.106,33.486z M26.288,53.051   c0,0-7.135-2.093-8.805-7.201c-0.222-0.682,0.147-1.156,0.795-1.521V37.8h20.188v6.663c0.235,0.352,1.109,0.737,1.229,1.387   C40.445,49.917,26.288,53.051,26.288,53.051z" stroke="#E55E03"/>

		<radialGradient gradientTransform="matrix(1 0 0 1 0.0801 -773.6914)" id="svg1.SVGID_3_" r="32.3071" cx="15.2056" gradientUnits="userSpaceOnUse" cy="831.1875">
		<stop offset="0" style="stop-color:#FCB57A"/>
		<stop offset="1" style="stop-color:#FF8C36"/>
	</radialGradient>
	<path fill="url(#svg1.SVGID_3_)" d="M49.529,51.225c-2.239-2.24-5.041-3.724-7.396-4.67   c-2.854,5.51-14.021,7.807-14.021,7.807s-10.472-2.483-12.387-8.514c-2.439,0.771-5.787,2.287-8.749,5.25   c-5.592,5.592-6.47,11.67-6.47,11.67c0,1.938,1.575,3.492,3.523,3.492h48.51c1.946,0,3.521-1.558,3.521-3.492   C56.055,62.768,54.211,55.906,49.529,51.225z" stroke="#E55E03"/>

		<radialGradient gradientTransform="matrix(1 0 0 -1 0.04 64.1543)" id="svg1.SVGID_4_" r="11.8931" cx="17.0723" gradientUnits="userSpaceOnUse" cy="18.4907">
		<stop offset="0" style="stop-color:#FCB57A"/>
		<stop offset="1" style="stop-color:#FF8C36"/>
	</radialGradient>
	<path fill="url(#svg1.SVGID_4_)" d="M13.404,44.173c1.15-1.81,2.039-3.832,3.332-5.397   c-0.514,1.027-1.669,4.084-1.669,5.148c0,5.186,10.366,9.079,14.688,10.438c-3.472,1.627-9.134-1.498-11.334-2.359   c-3.601-1.419-4.071-3.063-5.89-4.854C12.523,47.135,12.878,45,13.404,44.173z" stroke="#E55E03"/>

		<radialGradient gradientTransform="matrix(1 0 0 -1 0.04 64.1543)" id="svg1.SVGID_5_" r="14.63" cx="31.8184" gradientUnits="userSpaceOnUse" cy="19.3525">
		<stop offset="0" style="stop-color:#FCB57A"/>
		<stop offset="1" style="stop-color:#FF8C36"/>
	</radialGradient>
	<path fill="url(#svg1.SVGID_5_)" d="M45.777,43.924c-1.317-1.568-5.11-9.424-6.604-6.617   c0.516,1.025,3.617,3.693,3.617,6.617c0,5.186-10.271,8.576-16.699,9.145c1.429,4.938,11.373,1.293,13.805-0.313   c3.563-2.354,4.563-5.133,7.854-3.705C47.754,49.045,48.006,46.574,45.777,43.924z" stroke="#E55E03"/>

		<radialGradient gradientTransform="matrix(1 0 0 -1 0.04 64.1543)" id="svg1.SVGID_6_" r="5.2028" cx="30.4893" gradientUnits="userSpaceOnUse" cy="4.8721">
		<stop offset="0" style="stop-color:#FCB57A"/>
		<stop offset="1" style="stop-color:#FF8C36"/>
	</radialGradient>
	<path fill="url(#svg1.SVGID_6_)" d="M30.777,54.167c0.357,0.836-0.153,1.983-0.352,2.813   c-0.256,1.084-0.072,2.104,0.102,3.186c0.164,1.02,0.156,2.107,0.25,3.167c0.082,0.916,0.482,1.849,0.357,2.75" stroke="#E55E03"/>

		<radialGradient gradientTransform="matrix(1 0 0 -1 0.04 64.1543)" id="svg1.SVGID_7_" r="5.5143" cx="23.2871" gradientUnits="userSpaceOnUse" cy="5.3008">
		<stop offset="0" style="stop-color:#FCB57A"/>
		<stop offset="1" style="stop-color:#FF8C36"/>
	</radialGradient>
	<path fill="url(#svg1.SVGID_7_)" d="M23.695,53.417c-0.508,0.584-0.476,2.209-0.398,3   c0.116,1.183,0.456,2.099,0.333,3.333c-0.192,1.943,0.154,4.479-0.436,6.333" stroke="#E55E03"/>

		<radialGradient gradientTransform="matrix(1 0 0 1 0.3203 -3091.7656)" gradientUnits="userSpaceOnUse" r="23.425" cx="27.5835" id="svg1.face_x5F_white_1_" cy="3117.4922" fx="23.0139" fy="3115.0024">
		<stop offset="0" style="stop-color:#FFD28F"/>
		<stop offset="1" style="stop-color:#FFAB4F"/>
	</radialGradient>
	<path fill="url(#svg1.face_x5F_white_1_)" id="svg1.face_x5F_white_3_" d="M43.676,23.357   c0.086,10.2-6.738,18.52-15.25,18.586c-8.5,0.068-15.464-8.146-15.55-18.344C12.794,13.4,19.618,5.079,28.123,5.012   C36.627,4.945,43.59,13.158,43.676,23.357z" stroke-miterlimit="10" stroke="#ED9135"/>

		<linearGradient gradientTransform="matrix(0.275 0 0 -0.2733 -1752.8849 -3351.7349)" x1="6468.501" x2="6492.1304" gradientUnits="userSpaceOnUse" y1="-12291.5195" y2="-12384.9688" id="svg1.face_highlight_1_">
		<stop offset="0" style="stop-color:#FFFFFF;stop-opacity:0.24"/>
		<stop offset="1" style="stop-color:#FFFFFF;stop-opacity:0.16"/>
	</linearGradient>
	<path fill="url(#svg1.face_highlight_1_)" id="svg1.face_highlight_3_" d="M28.415,5.625c-6.035,0.047-10.747,4.493-12.787,10.386   c-0.664,1.919-0.294,4.043,0.98,5.629c2.73,3.398,5.729,6.283,9.461,8.088c3.137,1.518,7.535,2.385,11.893,1.247   c2.274-0.592,3.988-2.459,4.375-4.766c0.187-1.094,0.293-2.289,0.283-3.553C42.54,13.244,36.729,5.56,28.415,5.625z"/>
	<path fill="#5C5C5C" d="M20.278,13.25   c3.417,4.333,9.333,6.917,9.333,6.917l-1.417-3.5c0,0,7.094,4.691,8.083,4.333c0.968-0.2-1.082-3.807-1.082-3.807   s3.138,1.795,4.854,3.969c1.803,2.28,4.285,3.504,4.285,3.504S47.027,2.719,27.289,2.744C8.278,2.709,12.058,27.678,12.058,27.678   L14.695,17c0,0,0.914,5.757,1.399,4.875C17.861,15.211,18.861,11.5,20.278,13.25z" id="svg1.Hair_Young_Black_1_" stroke="#353535" stroke-linecap="round" stroke-linejoin="round"/>
</g>
</svg>
      </g>
    </g>
    <g fill="rgb(153,153,153)" text-rendering="geometricPrecision" shape-rendering="geometricPrecision" transform="matrix(1,0,0,1,1203,764)" stroke="rgb(153,153,153)">
      <rect x="-793.0802" width="66.76" height="19.44" y="-615.35" clip-path="url(#clipPath2)" stroke="none"/>
    </g>
    <g text-rendering="geometricPrecision" stroke-miterlimit="1.45" shape-rendering="geometricPrecision" transform="matrix(1,0,0,1,1203,764)" stroke-linecap="butt">
      <rect fill="none" x="-793.0802" width="66.76" height="19.44" y="-615.35" clip-path="url(#clipPath2)"/>
      <text x="-789.0801" font-size="10px" y="-602.0677" clip-path="url(#clipPath2)" font-family="sans-serif" stroke="none" xml:space="preserve">Expire in X</text>
      <path fill="none" d="M-719.4802 -567.67 L-624.27 -567.67" stroke-width="3" clip-path="url(#clipPath2)"/>
      <path d="M-614.27 -567.67 L-629.27 -573.92 L-625.52 -567.67 L-629.27 -561.42 Z" stroke-width="3" clip-path="url(#clipPath2)" stroke="none"/>
      <path fill="none" d="M-840.2966 -420.85 L-592.7648 -534.6816" stroke-width="3" clip-path="url(#clipPath2)"/>
      <path d="M-583.6794 -538.8596 L-599.9188 -538.2709 L-593.9005 -534.1593 L-594.6962 -526.9142 Z" stroke-width="3" clip-path="url(#clipPath2)" stroke="none"/>
      <path fill="none" d="M-718.4401 -230.89 L-630.576 -230.89" stroke-width="3" clip-path="url(#clipPath2)"/>
      <path d="M-620.576 -230.89 L-635.576 -237.14 L-631.826 -230.89 L-635.576 -224.64 Z" stroke-width="3" clip-path="url(#clipPath2)" stroke="none"/>
      <path fill="none" d="M-427.8106 -566.8525 L-367.7916 -566.3262" stroke-width="3" clip-path="url(#clipPath2)"/>
      <path d="M-357.792 -566.2385 L-372.7367 -572.6198 L-369.0416 -566.3371 L-372.8462 -560.1202 Z" stroke-width="3" clip-path="url(#clipPath2)" stroke="none"/>
      <path fill="none" d="M-263.2116 -551.59 L-490.6798 -275.3979" stroke-width="3" clip-path="url(#clipPath2)"/>
      <path d="M-497.0372 -267.6789 L-482.6767 -275.2841 L-489.8852 -276.3628 L-492.3256 -283.2308 Z" stroke-width="3" clip-path="url(#clipPath2)" stroke="none"/>
      <path fill="none" d="M-434.1448 -232.1488 L-367.7911 -233.0452" stroke-width="3" clip-path="url(#clipPath2)"/>
      <path d="M-357.792 -233.1802 L-372.875 -239.2271 L-369.041 -233.0283 L-372.7062 -226.7282 Z" stroke-width="3" clip-path="url(#clipPath2)" stroke="none"/>
      <path fill="none" d="M-726.3201 -605.63 L-718.8054 -688.4195" clip-path="url(#clipPath2)" stroke="gray"/>
      <path fill="gray" d="M-718.0823 -696.3867 L-724.1465 -684.8878 L-718.8958 -687.4236 L-714.1874 -683.9839 Z" clip-path="url(#clipPath2)" stroke="none"/>
    </g>
  </g>
</svg>
